<?xml version="1.0" encoding="utf-8" standalone="no"?>
<!DOCTYPE svg PUBLIC "-//W3C//DTD SVG 1.1//EN"
  "http://www.w3.org/Graphics/SVG/1.1/DTD/svg11.dtd">
<svg xmlns:xlink="http://www.w3.org/1999/xlink" width="2424.96pt" height="962.64pt" viewBox="0 0 2424.96 962.64" xmlns="http://www.w3.org/2000/svg" version="1.1">
 <metadata>
  <rdf:RDF xmlns:dc="http://purl.org/dc/elements/1.1/" xmlns:cc="http://creativecommons.org/ns#" xmlns:rdf="http://www.w3.org/1999/02/22-rdf-syntax-ns#">
   <cc:Work>
    <dc:type rdf:resource="http://purl.org/dc/dcmitype/StillImage"/>
    <dc:date>2023-12-01T21:27:46.011270</dc:date>
    <dc:format>image/svg+xml</dc:format>
    <dc:creator>
     <cc:Agent>
      <dc:title>Matplotlib v3.7.1, https://matplotlib.org/</dc:title>
     </cc:Agent>
    </dc:creator>
   </cc:Work>
  </rdf:RDF>
 </metadata>
 <defs>
  <style type="text/css">*{stroke-linejoin: round; stroke-linecap: butt}</style>
 </defs>
 <g id="figure_1">
  <g id="patch_1">
   <path d="M 0 962.64 
L 2424.96 962.64 
L 2424.96 0 
L 0 0 
z
" style="fill: #ffffff"/>
  </g>
  <g id="axes_1">
   <g id="patch_2">
    <path d="M 665.208 856.7496 
L 1820.376 856.7496 
L 1820.376 115.5168 
L 665.208 115.5168 
z
" style="fill: #ffffff"/>
   </g>
   <g id="matplotlib.axis_1">
    <g id="xtick_1">
     <g id="line2d_1">
      <defs>
       <path id="me416614d65" d="M 0 0 
L 0 3.5 
" style="stroke: #000000; stroke-width: 0.8"/>
      </defs>
      <g>
       <use xlink:href="#me416614d65" x="761.472" y="856.7496" style="stroke: #000000; stroke-width: 0.8"/>
      </g>
     </g>
     <g id="text_1">
      <!-- 0.0 -->
      <g transform="translate(753.520437 871.348038) scale(0.1 -0.1)">
       <defs>
        <path id="DejaVuSans-30" d="M 2034 4250 
Q 1547 4250 1301 3770 
Q 1056 3291 1056 2328 
Q 1056 1369 1301 889 
Q 1547 409 2034 409 
Q 2525 409 2770 889 
Q 3016 1369 3016 2328 
Q 3016 3291 2770 3770 
Q 2525 4250 2034 4250 
z
M 2034 4750 
Q 2819 4750 3233 4129 
Q 3647 3509 3647 2328 
Q 3647 1150 3233 529 
Q 2819 -91 2034 -91 
Q 1250 -91 836 529 
Q 422 1150 422 2328 
Q 422 3509 836 4129 
Q 1250 4750 2034 4750 
z
" transform="scale(0.015625)"/>
        <path id="DejaVuSans-2e" d="M 684 794 
L 1344 794 
L 1344 0 
L 684 0 
L 684 794 
z
" transform="scale(0.015625)"/>
       </defs>
       <use xlink:href="#DejaVuSans-30"/>
       <use xlink:href="#DejaVuSans-2e" x="63.623047"/>
       <use xlink:href="#DejaVuSans-30" x="95.410156"/>
      </g>
     </g>
    </g>
    <g id="xtick_2">
     <g id="line2d_2">
      <g>
       <use xlink:href="#me416614d65" x="954" y="856.7496" style="stroke: #000000; stroke-width: 0.8"/>
      </g>
     </g>
     <g id="text_2">
      <!-- 0.2 -->
      <g transform="translate(946.048437 871.348038) scale(0.1 -0.1)">
       <defs>
        <path id="DejaVuSans-32" d="M 1228 531 
L 3431 531 
L 3431 0 
L 469 0 
L 469 531 
Q 828 903 1448 1529 
Q 2069 2156 2228 2338 
Q 2531 2678 2651 2914 
Q 2772 3150 2772 3378 
Q 2772 3750 2511 3984 
Q 2250 4219 1831 4219 
Q 1534 4219 1204 4116 
Q 875 4013 500 3803 
L 500 4441 
Q 881 4594 1212 4672 
Q 1544 4750 1819 4750 
Q 2544 4750 2975 4387 
Q 3406 4025 3406 3419 
Q 3406 3131 3298 2873 
Q 3191 2616 2906 2266 
Q 2828 2175 2409 1742 
Q 1991 1309 1228 531 
z
" transform="scale(0.015625)"/>
       </defs>
       <use xlink:href="#DejaVuSans-30"/>
       <use xlink:href="#DejaVuSans-2e" x="63.623047"/>
       <use xlink:href="#DejaVuSans-32" x="95.410156"/>
      </g>
     </g>
    </g>
    <g id="xtick_3">
     <g id="line2d_3">
      <g>
       <use xlink:href="#me416614d65" x="1146.528" y="856.7496" style="stroke: #000000; stroke-width: 0.8"/>
      </g>
     </g>
     <g id="text_3">
      <!-- 0.4 -->
      <g transform="translate(1138.576438 871.348038) scale(0.1 -0.1)">
       <defs>
        <path id="DejaVuSans-34" d="M 2419 4116 
L 825 1625 
L 2419 1625 
L 2419 4116 
z
M 2253 4666 
L 3047 4666 
L 3047 1625 
L 3713 1625 
L 3713 1100 
L 3047 1100 
L 3047 0 
L 2419 0 
L 2419 1100 
L 313 1100 
L 313 1709 
L 2253 4666 
z
" transform="scale(0.015625)"/>
       </defs>
       <use xlink:href="#DejaVuSans-30"/>
       <use xlink:href="#DejaVuSans-2e" x="63.623047"/>
       <use xlink:href="#DejaVuSans-34" x="95.410156"/>
      </g>
     </g>
    </g>
    <g id="xtick_4">
     <g id="line2d_4">
      <g>
       <use xlink:href="#me416614d65" x="1339.056" y="856.7496" style="stroke: #000000; stroke-width: 0.8"/>
      </g>
     </g>
     <g id="text_4">
      <!-- 0.6 -->
      <g transform="translate(1331.104438 871.348038) scale(0.1 -0.1)">
       <defs>
        <path id="DejaVuSans-36" d="M 2113 2584 
Q 1688 2584 1439 2293 
Q 1191 2003 1191 1497 
Q 1191 994 1439 701 
Q 1688 409 2113 409 
Q 2538 409 2786 701 
Q 3034 994 3034 1497 
Q 3034 2003 2786 2293 
Q 2538 2584 2113 2584 
z
M 3366 4563 
L 3366 3988 
Q 3128 4100 2886 4159 
Q 2644 4219 2406 4219 
Q 1781 4219 1451 3797 
Q 1122 3375 1075 2522 
Q 1259 2794 1537 2939 
Q 1816 3084 2150 3084 
Q 2853 3084 3261 2657 
Q 3669 2231 3669 1497 
Q 3669 778 3244 343 
Q 2819 -91 2113 -91 
Q 1303 -91 875 529 
Q 447 1150 447 2328 
Q 447 3434 972 4092 
Q 1497 4750 2381 4750 
Q 2619 4750 2861 4703 
Q 3103 4656 3366 4563 
z
" transform="scale(0.015625)"/>
       </defs>
       <use xlink:href="#DejaVuSans-30"/>
       <use xlink:href="#DejaVuSans-2e" x="63.623047"/>
       <use xlink:href="#DejaVuSans-36" x="95.410156"/>
      </g>
     </g>
    </g>
    <g id="xtick_5">
     <g id="line2d_5">
      <g>
       <use xlink:href="#me416614d65" x="1531.584" y="856.7496" style="stroke: #000000; stroke-width: 0.8"/>
      </g>
     </g>
     <g id="text_5">
      <!-- 0.8 -->
      <g transform="translate(1523.632438 871.348038) scale(0.1 -0.1)">
       <defs>
        <path id="DejaVuSans-38" d="M 2034 2216 
Q 1584 2216 1326 1975 
Q 1069 1734 1069 1313 
Q 1069 891 1326 650 
Q 1584 409 2034 409 
Q 2484 409 2743 651 
Q 3003 894 3003 1313 
Q 3003 1734 2745 1975 
Q 2488 2216 2034 2216 
z
M 1403 2484 
Q 997 2584 770 2862 
Q 544 3141 544 3541 
Q 544 4100 942 4425 
Q 1341 4750 2034 4750 
Q 2731 4750 3128 4425 
Q 3525 4100 3525 3541 
Q 3525 3141 3298 2862 
Q 3072 2584 2669 2484 
Q 3125 2378 3379 2068 
Q 3634 1759 3634 1313 
Q 3634 634 3220 271 
Q 2806 -91 2034 -91 
Q 1263 -91 848 271 
Q 434 634 434 1313 
Q 434 1759 690 2068 
Q 947 2378 1403 2484 
z
M 1172 3481 
Q 1172 3119 1398 2916 
Q 1625 2713 2034 2713 
Q 2441 2713 2670 2916 
Q 2900 3119 2900 3481 
Q 2900 3844 2670 4047 
Q 2441 4250 2034 4250 
Q 1625 4250 1398 4047 
Q 1172 3844 1172 3481 
z
" transform="scale(0.015625)"/>
       </defs>
       <use xlink:href="#DejaVuSans-30"/>
       <use xlink:href="#DejaVuSans-2e" x="63.623047"/>
       <use xlink:href="#DejaVuSans-38" x="95.410156"/>
      </g>
     </g>
    </g>
    <g id="xtick_6">
     <g id="line2d_6">
      <g>
       <use xlink:href="#me416614d65" x="1724.112" y="856.7496" style="stroke: #000000; stroke-width: 0.8"/>
      </g>
     </g>
     <g id="text_6">
      <!-- 1.0 -->
      <g transform="translate(1716.160438 871.348038) scale(0.1 -0.1)">
       <defs>
        <path id="DejaVuSans-31" d="M 794 531 
L 1825 531 
L 1825 4091 
L 703 3866 
L 703 4441 
L 1819 4666 
L 2450 4666 
L 2450 531 
L 3481 531 
L 3481 0 
L 794 0 
L 794 531 
z
" transform="scale(0.015625)"/>
       </defs>
       <use xlink:href="#DejaVuSans-31"/>
       <use xlink:href="#DejaVuSans-2e" x="63.623047"/>
       <use xlink:href="#DejaVuSans-30" x="95.410156"/>
      </g>
     </g>
    </g>
   </g>
   <g id="matplotlib.axis_2">
    <g id="ytick_1">
     <g id="line2d_7">
      <defs>
       <path id="mc48b02f0b6" d="M 0 0 
L -3.5 0 
" style="stroke: #000000; stroke-width: 0.8"/>
      </defs>
      <g>
       <use xlink:href="#mc48b02f0b6" x="665.208" y="774.9252" style="stroke: #000000; stroke-width: 0.8"/>
      </g>
     </g>
     <g id="text_7">
      <!-- −0.4 -->
      <g transform="translate(633.925187 778.724419) scale(0.1 -0.1)">
       <defs>
        <path id="DejaVuSans-2212" d="M 678 2272 
L 4684 2272 
L 4684 1741 
L 678 1741 
L 678 2272 
z
" transform="scale(0.015625)"/>
       </defs>
       <use xlink:href="#DejaVuSans-2212"/>
       <use xlink:href="#DejaVuSans-30" x="83.789062"/>
       <use xlink:href="#DejaVuSans-2e" x="147.412109"/>
       <use xlink:href="#DejaVuSans-34" x="179.199219"/>
      </g>
     </g>
    </g>
    <g id="ytick_2">
     <g id="line2d_8">
      <g>
       <use xlink:href="#mc48b02f0b6" x="665.208" y="678.6612" style="stroke: #000000; stroke-width: 0.8"/>
      </g>
     </g>
     <g id="text_8">
      <!-- −0.3 -->
      <g transform="translate(633.925187 682.460419) scale(0.1 -0.1)">
       <defs>
        <path id="DejaVuSans-33" d="M 2597 2516 
Q 3050 2419 3304 2112 
Q 3559 1806 3559 1356 
Q 3559 666 3084 287 
Q 2609 -91 1734 -91 
Q 1441 -91 1130 -33 
Q 819 25 488 141 
L 488 750 
Q 750 597 1062 519 
Q 1375 441 1716 441 
Q 2309 441 2620 675 
Q 2931 909 2931 1356 
Q 2931 1769 2642 2001 
Q 2353 2234 1838 2234 
L 1294 2234 
L 1294 2753 
L 1863 2753 
Q 2328 2753 2575 2939 
Q 2822 3125 2822 3475 
Q 2822 3834 2567 4026 
Q 2313 4219 1838 4219 
Q 1578 4219 1281 4162 
Q 984 4106 628 3988 
L 628 4550 
Q 988 4650 1302 4700 
Q 1616 4750 1894 4750 
Q 2613 4750 3031 4423 
Q 3450 4097 3450 3541 
Q 3450 3153 3228 2886 
Q 3006 2619 2597 2516 
z
" transform="scale(0.015625)"/>
       </defs>
       <use xlink:href="#DejaVuSans-2212"/>
       <use xlink:href="#DejaVuSans-30" x="83.789062"/>
       <use xlink:href="#DejaVuSans-2e" x="147.412109"/>
       <use xlink:href="#DejaVuSans-33" x="179.199219"/>
      </g>
     </g>
    </g>
    <g id="ytick_3">
     <g id="line2d_9">
      <g>
       <use xlink:href="#mc48b02f0b6" x="665.208" y="582.3972" style="stroke: #000000; stroke-width: 0.8"/>
      </g>
     </g>
     <g id="text_9">
      <!-- −0.2 -->
      <g transform="translate(633.925187 586.196419) scale(0.1 -0.1)">
       <use xlink:href="#DejaVuSans-2212"/>
       <use xlink:href="#DejaVuSans-30" x="83.789062"/>
       <use xlink:href="#DejaVuSans-2e" x="147.412109"/>
       <use xlink:href="#DejaVuSans-32" x="179.199219"/>
      </g>
     </g>
    </g>
    <g id="ytick_4">
     <g id="line2d_10">
      <g>
       <use xlink:href="#mc48b02f0b6" x="665.208" y="486.1332" style="stroke: #000000; stroke-width: 0.8"/>
      </g>
     </g>
     <g id="text_10">
      <!-- −0.1 -->
      <g transform="translate(633.925187 489.932419) scale(0.1 -0.1)">
       <use xlink:href="#DejaVuSans-2212"/>
       <use xlink:href="#DejaVuSans-30" x="83.789062"/>
       <use xlink:href="#DejaVuSans-2e" x="147.412109"/>
       <use xlink:href="#DejaVuSans-31" x="179.199219"/>
      </g>
     </g>
    </g>
    <g id="ytick_5">
     <g id="line2d_11">
      <g>
       <use xlink:href="#mc48b02f0b6" x="665.208" y="389.8692" style="stroke: #000000; stroke-width: 0.8"/>
      </g>
     </g>
     <g id="text_11">
      <!-- 0.0 -->
      <g transform="translate(642.304875 393.668419) scale(0.1 -0.1)">
       <use xlink:href="#DejaVuSans-30"/>
       <use xlink:href="#DejaVuSans-2e" x="63.623047"/>
       <use xlink:href="#DejaVuSans-30" x="95.410156"/>
      </g>
     </g>
    </g>
    <g id="ytick_6">
     <g id="line2d_12">
      <g>
       <use xlink:href="#mc48b02f0b6" x="665.208" y="293.6052" style="stroke: #000000; stroke-width: 0.8"/>
      </g>
     </g>
     <g id="text_12">
      <!-- 0.1 -->
      <g transform="translate(642.304875 297.404419) scale(0.1 -0.1)">
       <use xlink:href="#DejaVuSans-30"/>
       <use xlink:href="#DejaVuSans-2e" x="63.623047"/>
       <use xlink:href="#DejaVuSans-31" x="95.410156"/>
      </g>
     </g>
    </g>
    <g id="ytick_7">
     <g id="line2d_13">
      <g>
       <use xlink:href="#mc48b02f0b6" x="665.208" y="197.3412" style="stroke: #000000; stroke-width: 0.8"/>
      </g>
     </g>
     <g id="text_13">
      <!-- 0.2 -->
      <g transform="translate(642.304875 201.140419) scale(0.1 -0.1)">
       <use xlink:href="#DejaVuSans-30"/>
       <use xlink:href="#DejaVuSans-2e" x="63.623047"/>
       <use xlink:href="#DejaVuSans-32" x="95.410156"/>
      </g>
     </g>
    </g>
   </g>
   <g id="line2d_14">
    <path d="M 761.472 389.8692 
L 1724.112 389.8692 
L 1724.112 389.8692 
" clip-path="url(#p6d9bdef6c0)" style="fill: none; stroke: #ff0000; stroke-width: 1.5; stroke-linecap: square"/>
   </g>
   <g id="line2d_15">
    <path d="M 761.472 389.8692 
L 761.459785 389.8692 
L 1724.02288 389.8692 
L 1724.02288 389.8692 
" clip-path="url(#p6d9bdef6c0)" style="fill: none; stroke: #0000ff; stroke-width: 1.5; stroke-linecap: square"/>
   </g>
   <g id="line2d_16">
    <path d="M 1240.49255 823.0572 
L 1173.238222 823.049776 
L 1168.251856 823.027484 
L 1165.177386 822.990265 
L 1162.926514 822.938021 
L 1161.143263 822.870612 
L 1159.664557 822.787856 
L 1158.40154 822.689524 
L 1157.300265 822.57534 
L 1156.325437 822.444978 
L 1155.452669 822.298053 
L 1154.664385 822.134119 
L 1153.947495 821.952665 
L 1153.29198 821.7531 
L 1152.690005 821.534749 
L 1152.135324 821.296841 
L 1151.62288 821.038493 
L 1151.148524 820.758694 
L 1150.708814 820.456284 
L 1150.300861 820.129931 
L 1149.922224 819.778095 
L 1149.570823 819.398989 
L 1149.244874 818.99053 
L 1148.942839 818.550275 
L 1148.663387 818.075331 
L 1148.405358 817.562252 
L 1148.167745 817.006883 
L 1147.949664 816.404162 
L 1147.750346 815.747835 
L 1147.569116 815.030056 
L 1147.405386 814.240795 
L 1147.258643 813.366945 
L 1147.128442 812.390909 
L 1147.0144 811.288268 
L 1146.91619 810.023686 
L 1146.833535 808.543146 
L 1146.76621 806.757686 
L 1146.714031 804.504023 
L 1146.676858 801.425742 
L 1146.654594 796.433195 
L 1146.647179 726.7932 
L 1146.654594 657.153205 
L 1146.676858 652.160658 
L 1146.714031 649.082377 
L 1146.76621 646.828714 
L 1146.833535 645.043254 
L 1146.91619 643.562714 
L 1147.0144 642.298132 
L 1147.128442 641.195491 
L 1147.258643 640.219455 
L 1147.405386 639.345605 
L 1147.569116 638.556344 
L 1147.750346 637.838565 
L 1147.949664 637.182238 
L 1148.167745 636.579517 
L 1148.405358 636.024148 
L 1148.663387 635.511069 
L 1148.942839 635.036125 
L 1149.244874 634.59587 
L 1149.570823 634.187411 
L 1149.922224 633.808305 
L 1150.300861 633.456469 
L 1150.708814 633.130116 
L 1151.148524 632.827706 
L 1151.62288 632.547907 
L 1152.135324 632.289559 
L 1152.690005 632.051651 
L 1153.29198 631.8333 
L 1153.947495 631.633735 
L 1154.664385 631.452281 
L 1155.452669 631.288347 
L 1156.325437 631.141422 
L 1157.300265 631.01106 
L 1158.40154 630.896876 
L 1159.664557 630.798544 
L 1161.143263 630.715788 
L 1162.926514 630.648379 
L 1165.177386 630.596135 
L 1168.251856 630.558916 
L 1173.238222 630.536624 
L 1240.49255 630.5292 
" clip-path="url(#p6d9bdef6c0)" style="fill: none; stroke: #ff0000; stroke-width: 1.5; stroke-linecap: square"/>
   </g>
   <g id="line2d_17">
    <path d="M 1245.0943 823.0572 
L 1312.431995 823.049776 
L 1317.424542 823.027484 
L 1320.502823 822.990265 
L 1322.756486 822.938021 
L 1324.541946 822.870612 
L 1326.022486 822.787856 
L 1327.287068 822.689524 
L 1328.389709 822.57534 
L 1329.365745 822.444978 
L 1330.239595 822.298053 
L 1331.028856 822.134119 
L 1331.746635 821.952665 
L 1332.402962 821.7531 
L 1333.005683 821.534749 
L 1333.561052 821.296841 
L 1334.074131 821.038493 
L 1334.549075 820.758694 
L 1334.98933 820.456284 
L 1335.397789 820.129931 
L 1335.776895 819.778095 
L 1336.128731 819.398989 
L 1336.455084 818.99053 
L 1336.757494 818.550275 
L 1337.037293 818.075331 
L 1337.295641 817.562252 
L 1337.533549 817.006883 
L 1337.7519 816.404162 
L 1337.951465 815.747835 
L 1338.132919 815.030056 
L 1338.296853 814.240795 
L 1338.443778 813.366945 
L 1338.57414 812.390909 
L 1338.688324 811.288268 
L 1338.786656 810.023686 
L 1338.869412 808.543146 
L 1338.936821 806.757686 
L 1338.989065 804.504023 
L 1339.026284 801.425742 
L 1339.048576 796.433195 
L 1339.056 726.7932 
L 1339.048576 657.153205 
L 1339.026284 652.160658 
L 1338.989065 649.082377 
L 1338.936821 646.828714 
L 1338.869412 645.043254 
L 1338.786656 643.562714 
L 1338.688324 642.298132 
L 1338.57414 641.195491 
L 1338.443778 640.219455 
L 1338.296853 639.345605 
L 1338.132919 638.556344 
L 1337.951465 637.838565 
L 1337.7519 637.182238 
L 1337.533549 636.579517 
L 1337.295641 636.024148 
L 1337.037293 635.511069 
L 1336.757494 635.036125 
L 1336.455084 634.59587 
L 1336.128731 634.187411 
L 1335.776895 633.808305 
L 1335.397789 633.456469 
L 1334.98933 633.130116 
L 1334.549075 632.827706 
L 1334.074131 632.547907 
L 1333.561052 632.289559 
L 1333.005683 632.051651 
L 1332.402962 631.8333 
L 1331.746635 631.633735 
L 1331.028856 631.452281 
L 1330.239595 631.288347 
L 1329.365745 631.141422 
L 1328.389709 631.01106 
L 1327.287068 630.896876 
L 1326.022486 630.798544 
L 1324.541946 630.715788 
L 1322.756486 630.648379 
L 1320.502823 630.596135 
L 1317.424542 630.558916 
L 1312.431995 630.536624 
L 1245.0943 630.5292 
" clip-path="url(#p6d9bdef6c0)" style="fill: none; stroke: #ff0000; stroke-width: 1.5; stroke-linecap: square"/>
   </g>
   <g id="line2d_18">
    <defs>
     <path id="m04026fcd2e" d="M 0 3 
C 0.795609 3 1.55874 2.683901 2.12132 2.12132 
C 2.683901 1.55874 3 0.795609 3 0 
C 3 -0.795609 2.683901 -1.55874 2.12132 -2.12132 
C 1.55874 -2.683901 0.795609 -3 0 -3 
C -0.795609 -3 -1.55874 -2.683901 -2.12132 -2.12132 
C -2.683901 -1.55874 -3 -0.795609 -3 0 
C -3 0.795609 -2.683901 1.55874 -2.12132 2.12132 
C -1.55874 2.683901 -0.795609 3 0 3 
z
" style="stroke: #ff0000"/>
    </defs>
    <g clip-path="url(#p6d9bdef6c0)">
     <use xlink:href="#m04026fcd2e" x="1242.792" y="726.7932" style="fill: #ff0000; stroke: #ff0000"/>
    </g>
   </g>
   <g id="line2d_19">
    <path d="M 761.472 630.5292 
L 757.739223 630.34366 
L 754.012201 629.787326 
L 750.296682 628.861055 
L 746.598394 627.566276 
L 742.92304 625.904986 
L 739.276288 623.879745 
L 735.663759 621.493677 
L 732.091026 618.750461 
L 728.563595 615.654327 
L 725.086907 612.210048 
L 721.666322 608.422936 
L 718.307114 604.29883 
L 715.014464 599.844089 
L 711.793448 595.065582 
L 708.649032 589.970677 
L 705.586066 584.56723 
L 702.609271 578.863573 
L 699.723239 572.8685 
L 696.932419 566.591255 
L 694.241114 560.041518 
L 691.653475 553.229387 
L 689.17349 546.165367 
L 686.804985 538.86035 
L 684.55161 531.325599 
L 682.416842 523.572732 
L 680.40397 515.613705 
L 678.5161 507.460788 
L 676.756142 499.126554 
L 675.126809 490.623852 
L 673.630615 481.965795 
L 672.269865 473.165731 
L 671.046659 464.23723 
L 669.962882 455.194059 
L 669.020205 446.050161 
L 668.220083 436.819637 
L 667.563748 427.516718 
L 667.052213 418.15575 
L 666.686266 408.751166 
L 666.466472 399.317467 
L 666.39317 389.8692 
L 666.466472 380.420933 
L 666.686266 370.987234 
L 667.052213 361.58265 
L 667.563748 352.221682 
L 668.220083 342.918763 
L 669.020205 333.688239 
L 669.962882 324.544341 
L 671.046659 315.50117 
L 672.269865 306.572669 
L 673.630615 297.772605 
L 675.126809 289.114548 
L 676.756142 280.611846 
L 678.5161 272.277612 
L 680.40397 264.124695 
L 682.416842 256.165668 
L 684.55161 248.412801 
L 686.804985 240.87805 
L 689.17349 233.573033 
L 691.653475 226.509013 
L 694.241114 219.696882 
L 696.932419 213.147145 
L 699.723239 206.8699 
L 702.609271 200.874827 
L 705.586066 195.17117 
L 708.649032 189.767723 
L 711.793448 184.672818 
L 715.014464 179.894311 
L 718.307114 175.43957 
L 721.666322 171.315464 
L 725.086907 167.528352 
L 728.563595 164.084073 
L 732.091026 160.987939 
L 735.663759 158.244723 
L 739.276288 155.858655 
L 742.92304 153.833414 
L 746.598394 152.172124 
L 750.296682 150.877345 
L 754.012201 149.951074 
L 757.739223 149.39474 
L 761.472 149.2092 
" clip-path="url(#p6d9bdef6c0)" style="fill: none; stroke: #fde725; stroke-width: 1.5; stroke-linecap: square"/>
   </g>
   <g id="line2d_20">
    <path d="M 761.472 630.5292 
L 765.251307 630.34366 
L 769.024786 629.787326 
L 772.78662 628.861055 
L 776.531007 627.566276 
L 780.252175 625.904986 
L 783.944385 623.879745 
L 787.601943 621.493677 
L 791.219212 618.750461 
L 794.790612 615.654327 
L 798.310638 612.210048 
L 801.773861 608.422936 
L 805.174941 604.29883 
L 808.508635 599.844089 
L 811.769802 595.065582 
L 814.953413 589.970677 
L 818.05456 584.56723 
L 821.06846 578.863573 
L 823.990467 572.8685 
L 826.816075 566.591255 
L 829.540927 560.041518 
L 832.160822 553.229387 
L 834.67172 546.165367 
L 837.069749 538.86035 
L 839.351212 531.325599 
L 841.512591 523.572732 
L 843.550553 515.613705 
L 845.461956 507.460788 
L 847.243852 499.126554 
L 848.893494 490.623852 
L 850.408339 481.965795 
L 851.786051 473.165731 
L 853.024504 464.23723 
L 854.121791 455.194059 
L 855.076218 446.050161 
L 855.886314 436.819637 
L 856.55083 427.516718 
L 857.068742 418.15575 
L 857.43925 408.751166 
L 857.661784 399.317467 
L 857.736 389.8692 
L 857.661784 380.420933 
L 857.43925 370.987234 
L 857.068742 361.58265 
L 856.55083 352.221682 
L 855.886314 342.918763 
L 855.076218 333.688239 
L 854.121791 324.544341 
L 853.024504 315.50117 
L 851.786051 306.572669 
L 850.408339 297.772605 
L 848.893494 289.114548 
L 847.243852 280.611846 
L 845.461956 272.277612 
L 843.550553 264.124695 
L 841.512591 256.165668 
L 839.351212 248.412801 
L 837.069749 240.87805 
L 834.67172 233.573033 
L 832.160822 226.509013 
L 829.540927 219.696882 
L 826.816075 213.147145 
L 823.990467 206.8699 
L 821.06846 200.874827 
L 818.05456 195.17117 
L 814.953413 189.767723 
L 811.769802 184.672818 
L 808.508635 179.894311 
L 805.174941 175.43957 
L 801.773861 171.315464 
L 798.310638 167.528352 
L 794.790612 164.084073 
L 791.219212 160.987939 
L 787.601943 158.244723 
L 783.944385 155.858655 
L 780.252175 153.833414 
L 776.531007 152.172124 
L 772.78662 150.877345 
L 769.024786 149.951074 
L 765.251307 149.39474 
L 761.472 149.2092 
" clip-path="url(#p6d9bdef6c0)" style="fill: none; stroke: #fde725; stroke-width: 1.5; stroke-linecap: square"/>
   </g>
   <g id="line2d_21">
    <defs>
     <path id="me620031c8d" d="M 0 3 
C 0.795609 3 1.55874 2.683901 2.12132 2.12132 
C 2.683901 1.55874 3 0.795609 3 0 
C 3 -0.795609 2.683901 -1.55874 2.12132 -2.12132 
C 1.55874 -2.683901 0.795609 -3 0 -3 
C -0.795609 -3 -1.55874 -2.683901 -2.12132 -2.12132 
C -2.683901 -1.55874 -3 -0.795609 -3 0 
C -3 0.795609 -2.683901 1.55874 -2.12132 2.12132 
C -1.55874 2.683901 -0.795609 3 0 3 
z
" style="stroke: #fde725"/>
    </defs>
    <g clip-path="url(#p6d9bdef6c0)">
     <use xlink:href="#me620031c8d" x="761.472" y="389.8692" style="fill: #fde725; stroke: #fde725"/>
    </g>
   </g>
   <g id="line2d_22">
    <path d="M 823.531341 630.519685 
L 819.800361 630.300958 
L 816.078434 629.711504 
L 812.371298 628.75223 
L 808.684671 627.424615 
L 805.024235 625.730707 
L 801.395636 623.673118 
L 797.804469 621.255021 
L 794.25627 618.480143 
L 790.756511 615.352763 
L 787.310589 611.877705 
L 783.923815 608.060325 
L 780.601414 603.90651 
L 777.348507 599.422666 
L 774.170111 594.615705 
L 771.071126 589.49304 
L 768.056331 584.062569 
L 765.130374 578.332666 
L 762.297766 572.312167 
L 759.562877 566.010353 
L 756.929921 559.436943 
L 754.402961 552.602071 
L 751.985891 545.516277 
L 749.682438 538.190487 
L 747.496155 530.635995 
L 745.430413 522.864452 
L 743.488397 514.88784 
L 741.6731 506.718458 
L 739.987323 498.368903 
L 738.433665 489.852049 
L 737.014521 481.181029 
L 735.732079 472.369212 
L 734.588317 463.430187 
L 733.584999 454.377736 
L 732.723671 445.225817 
L 732.005662 435.988543 
L 731.432079 426.680156 
L 731.003806 417.315009 
L 730.721504 407.907542 
L 730.585607 398.472262 
L 730.596326 389.023717 
L 730.753643 379.576475 
L 731.057317 370.145104 
L 731.506879 360.744146 
L 732.101636 351.388096 
L 732.840671 342.091382 
L 733.722844 332.868337 
L 734.746795 323.733184 
L 735.910945 314.700008 
L 737.213499 305.782737 
L 738.652449 296.995122 
L 740.225575 288.350711 
L 741.930453 279.862835 
L 743.764454 271.544581 
L 745.724749 263.408774 
L 747.808316 255.46796 
L 750.011942 247.734384 
L 752.33223 240.219969 
L 754.765601 232.936302 
L 757.308304 225.894614 
L 759.956418 219.105763 
L 762.705859 212.580218 
L 765.552389 206.328038 
L 768.491618 200.358866 
L 771.519014 194.681906 
L 774.629909 189.305909 
L 777.819506 184.239167 
L 781.082888 179.489492 
L 784.415022 175.064207 
L 787.81077 170.970135 
L 791.264896 167.21359 
L 794.772075 163.800364 
L 798.326898 160.73572 
L 801.923885 158.024383 
L 805.557488 155.670533 
L 809.222106 153.677801 
L 812.912087 152.049259 
L 816.621743 150.787419 
L 820.345352 149.894225 
L 824.077173 149.371055 
L 827.811453 149.218715 
" clip-path="url(#p6d9bdef6c0)" style="fill: none; stroke: #d2e21b; stroke-width: 1.5; stroke-linecap: square"/>
   </g>
   <g id="line2d_23">
    <path d="M 823.531341 630.519685 
L 827.312148 630.367759 
L 831.090426 629.845002 
L 834.860348 628.95222 
L 838.616101 627.690789 
L 842.351894 626.062655 
L 846.061967 624.070327 
L 849.740599 621.716878 
L 853.382119 619.005937 
L 856.98091 615.941684 
L 860.531424 612.528843 
L 864.028187 608.772677 
L 867.465807 604.678978 
L 870.838982 600.254058 
L 874.142512 595.504739 
L 877.371304 590.438346 
L 880.520378 585.062689 
L 883.584878 579.386058 
L 886.560081 573.417206 
L 889.441397 567.165336 
L 892.224385 560.640089 
L 894.904753 553.851525 
L 897.478367 546.810112 
L 899.941261 539.526708 
L 902.289636 532.012542 
L 904.519872 524.279202 
L 906.628528 516.338612 
L 908.612355 508.203015 
L 910.468293 499.884955 
L 912.19348 491.39726 
L 913.785256 482.753015 
L 915.241167 473.96555 
L 916.558968 465.048415 
L 917.736627 456.015359 
L 918.772328 446.88031 
L 919.664474 437.657355 
L 920.41169 428.360713 
L 921.012823 419.00472 
L 921.466946 409.603803 
L 921.77336 400.172456 
L 921.931591 390.725222 
L 921.941396 381.276669 
L 921.80276 371.841364 
L 921.515896 362.433857 
L 921.081247 353.068654 
L 920.499482 343.760194 
L 919.7715 334.52283 
L 918.898422 325.370807 
L 917.881595 316.318236 
L 916.722587 307.379075 
L 915.423184 298.567108 
L 913.98539 289.895922 
L 912.411423 281.378888 
L 910.703709 273.029138 
L 908.864881 264.859546 
L 906.897774 256.882711 
L 904.805423 249.110931 
L 902.591053 241.55619 
L 900.258078 234.230137 
L 897.810096 227.144068 
L 895.250881 220.30891 
L 892.58438 213.735201 
L 889.814703 207.433078 
L 886.946123 201.412258 
L 883.983061 195.682026 
L 880.930087 190.251215 
L 877.791908 185.128202 
L 874.573363 180.320884 
L 871.279414 175.836674 
L 867.915142 171.682487 
L 864.485732 167.864728 
L 860.996474 164.389284 
L 857.452747 161.261514 
L 853.860015 158.48624 
L 850.223819 156.067742 
L 846.549765 154.009749 
L 842.843517 152.315434 
L 839.110792 150.987409 
L 835.357344 150.027723 
L 831.588961 149.437855 
L 827.811453 149.218715 
" clip-path="url(#p6d9bdef6c0)" style="fill: none; stroke: #d2e21b; stroke-width: 1.5; stroke-linecap: square"/>
   </g>
   <g id="line2d_24">
    <defs>
     <path id="m0ad7774632" d="M 0 3 
C 0.795609 3 1.55874 2.683901 2.12132 2.12132 
C 2.683901 1.55874 3 0.795609 3 0 
C 3 -0.795609 2.683901 -1.55874 2.12132 -2.12132 
C 1.55874 -2.683901 0.795609 -3 0 -3 
C -0.795609 -3 -1.55874 -2.683901 -2.12132 -2.12132 
C -2.683901 -1.55874 -3 -0.795609 -3 0 
C -3 0.795609 -2.683901 1.55874 -2.12132 2.12132 
C -1.55874 2.683901 -0.795609 3 0 3 
z
" style="stroke: #d2e21b"/>
    </defs>
    <g clip-path="url(#p6d9bdef6c0)">
     <use xlink:href="#m0ad7774632" x="825.671397" y="389.8692" style="fill: #d2e21b; stroke: #d2e21b"/>
    </g>
   </g>
   <g id="line2d_25">
    <path d="M 882.875571 630.442983 
L 879.149097 630.1576 
L 875.438301 629.50171 
L 871.748905 628.476325 
L 868.086597 627.083024 
L 864.457025 625.323957 
L 860.865785 623.201836 
L 857.318414 620.719932 
L 853.820383 617.882074 
L 850.377085 614.692636 
L 846.99383 611.156537 
L 843.675833 607.279229 
L 840.428212 603.06669 
L 837.255973 598.525417 
L 834.164009 593.66241 
L 831.157086 588.485169 
L 828.239842 583.001677 
L 825.416774 577.220388 
L 822.692236 571.150218 
L 820.070427 564.800525 
L 817.555392 558.181101 
L 815.151008 551.302152 
L 812.860982 544.174285 
L 810.688846 536.808491 
L 808.637949 529.216127 
L 806.711452 521.4089 
L 804.912328 513.398849 
L 803.243349 505.198324 
L 801.707089 496.819969 
L 800.305917 488.276705 
L 799.041994 479.581703 
L 797.917268 470.748371 
L 796.933473 461.790329 
L 796.092127 452.72139 
L 795.394527 443.555538 
L 794.841749 434.306905 
L 794.434644 424.989752 
L 794.173841 415.618446 
L 794.059742 406.207436 
L 794.092522 396.771234 
L 794.272131 387.32439 
L 794.598293 377.88147 
L 795.070503 368.457033 
L 795.688035 359.065613 
L 796.449936 349.72169 
L 797.355031 340.439671 
L 798.401924 331.233869 
L 799.589002 322.118479 
L 800.914433 313.107555 
L 802.376175 304.214992 
L 803.971973 295.454501 
L 805.699367 286.839591 
L 807.555693 278.383546 
L 809.538089 270.099403 
L 811.643497 261.999937 
L 813.868673 254.097635 
L 816.210185 246.404684 
L 818.664421 238.932944 
L 821.227599 231.693938 
L 823.895765 224.698826 
L 826.664806 217.958395 
L 829.530452 211.483037 
L 832.488285 205.282739 
L 835.533743 199.367059 
L 838.66213 193.74512 
L 841.868624 188.42559 
L 845.14828 183.416671 
L 848.49604 178.726087 
L 851.906743 174.361071 
L 855.37513 170.328352 
L 858.895853 166.63415 
L 862.463482 163.284159 
L 866.072518 160.283547 
L 869.717395 157.636939 
L 873.392493 155.348416 
L 877.092145 153.421507 
L 880.810647 151.859184 
L 884.542265 150.663855 
L 888.281245 149.837363 
L 892.021822 149.380982 
L 895.758228 149.295417 
" clip-path="url(#p6d9bdef6c0)" style="fill: none; stroke: #a5db36; stroke-width: 1.5; stroke-linecap: square"/>
   </g>
   <g id="line2d_26">
    <path d="M 882.875571 630.442983 
L 886.65849 630.358663 
L 890.445508 629.903526 
L 894.230786 629.078274 
L 898.008487 627.884178 
L 901.772786 626.323081 
L 905.517879 624.397389 
L 909.237991 622.110072 
L 912.927387 619.464656 
L 916.580377 616.46522 
L 920.191328 613.11639 
L 923.754674 609.423328 
L 927.264918 605.391731 
L 930.71665 601.027813 
L 934.104546 596.338303 
L 937.423383 591.330434 
L 940.668044 586.011926 
L 943.833524 580.39098 
L 946.914944 574.476263 
L 949.907552 568.276895 
L 952.806733 561.802436 
L 955.608018 555.062868 
L 958.307087 548.068583 
L 960.899778 540.830367 
L 963.382093 533.359379 
L 965.750205 525.66714 
L 968.000462 517.76551 
L 970.129395 509.666674 
L 972.133721 501.383118 
L 974.01035 492.927616 
L 975.756387 484.313205 
L 977.369141 475.553169 
L 978.846125 466.661014 
L 980.185061 457.650452 
L 981.383885 448.535376 
L 982.440748 439.329841 
L 983.354022 430.048041 
L 984.122296 420.704288 
L 984.744388 411.31299 
L 985.219337 401.888627 
L 985.546412 392.445731 
L 985.725108 382.998863 
L 985.75515 373.562587 
L 985.63649 364.151456 
L 985.369313 354.779979 
L 984.95403 345.462607 
L 984.391281 336.213707 
L 983.681935 327.04754 
L 982.827085 317.97824 
L 981.828048 309.01979 
L 980.686366 300.186004 
L 979.4038 291.490503 
L 977.982325 282.946694 
L 976.424135 274.567753 
L 974.731632 266.366598 
L 972.907425 258.355875 
L 970.954329 250.547936 
L 968.875353 242.954821 
L 966.673703 235.588236 
L 964.352775 228.459542 
L 961.916147 221.57973 
L 959.367577 214.959408 
L 956.710993 208.608784 
L 953.950493 202.53765 
L 951.090332 196.755369 
L 948.134921 191.270854 
L 945.088817 186.092564 
L 941.956717 181.228483 
L 938.74345 176.686111 
L 935.45397 172.472451 
L 932.093351 168.594002 
L 928.666774 165.056743 
L 925.179522 161.866128 
L 921.636972 159.027078 
L 918.044587 156.543969 
L 914.407906 154.420631 
L 910.732537 152.660338 
L 907.024146 151.265804 
L 903.288452 150.239178 
L 899.531215 149.582045 
L 895.758228 149.295417 
" clip-path="url(#p6d9bdef6c0)" style="fill: none; stroke: #a5db36; stroke-width: 1.5; stroke-linecap: square"/>
   </g>
   <g id="line2d_27">
    <defs>
     <path id="m1bd8b4811b" d="M 0 3 
C 0.795609 3 1.55874 2.683901 2.12132 2.12132 
C 2.683901 1.55874 3 0.795609 3 0 
C 3 -0.795609 2.683901 -1.55874 2.12132 -2.12132 
C 1.55874 -2.683901 0.795609 -3 0 -3 
C -0.795609 -3 -1.55874 -2.683901 -2.12132 -2.12132 
C -2.683901 -1.55874 -3 -0.795609 -3 0 
C -3 0.795609 -2.683901 1.55874 -2.12132 2.12132 
C -1.55874 2.683901 -0.795609 3 0 3 
z
" style="stroke: #a5db36"/>
    </defs>
    <g clip-path="url(#p6d9bdef6c0)">
     <use xlink:href="#m1bd8b4811b" x="889.316899" y="389.8692" style="fill: #a5db36; stroke: #a5db36"/>
    </g>
   </g>
   <g id="line2d_28">
    <path d="M 940.719314 630.130237 
L 937.003403 629.730156 
L 933.314581 628.960227 
L 929.658535 627.821637 
L 926.040902 626.316142 
L 922.467261 624.446062 
L 918.943121 622.214282 
L 915.473917 619.624243 
L 912.064998 616.679938 
L 908.72162 613.385908 
L 905.448938 609.747231 
L 902.251999 605.769517 
L 899.135732 601.458902 
L 896.104943 596.82203 
L 893.164304 591.866052 
L 890.318349 586.59861 
L 887.571468 581.027825 
L 884.927895 575.162287 
L 882.391707 569.011041 
L 879.966814 562.583571 
L 877.656955 555.889788 
L 875.465692 548.940013 
L 873.396404 541.744963 
L 871.452281 534.315731 
L 869.636322 526.663773 
L 867.951325 518.800888 
L 866.39989 510.739199 
L 864.984408 502.491138 
L 863.707063 494.069422 
L 862.569823 485.487036 
L 861.574442 476.757215 
L 860.722455 467.893419 
L 860.015176 458.909315 
L 859.453695 449.818757 
L 859.038878 440.63576 
L 858.771365 431.374485 
L 858.651568 422.049212 
L 858.679672 412.67432 
L 858.855633 403.264264 
L 859.179181 393.833553 
L 859.649816 384.39673 
L 860.266812 374.968345 
L 861.029219 365.562936 
L 861.93586 356.195006 
L 862.985339 346.878999 
L 864.176035 337.629279 
L 865.506114 328.46011 
L 866.973525 319.385629 
L 868.576005 310.419829 
L 870.311083 301.576533 
L 872.176083 292.869379 
L 874.168131 284.311791 
L 876.284154 275.916966 
L 878.52089 267.697846 
L 880.874889 259.667106 
L 883.342523 251.837128 
L 885.919986 244.219985 
L 888.603304 236.827423 
L 891.388339 229.67084 
L 894.270797 222.761272 
L 897.246234 216.109371 
L 900.310062 209.725396 
L 903.457556 203.61919 
L 906.683863 197.800167 
L 909.984009 192.277301 
L 913.352905 187.059108 
L 916.785356 182.153633 
L 920.27607 177.56844 
L 923.819664 173.3106 
L 927.410675 169.386677 
L 931.043565 165.802722 
L 934.712732 162.564262 
L 938.41252 159.676289 
L 942.137223 157.143258 
L 945.881097 154.969072 
L 949.638372 153.157086 
L 953.403251 151.710093 
L 957.169932 150.630323 
L 960.932605 149.919443 
L 964.685469 149.578548 
L 968.422738 149.608163 
" clip-path="url(#p6d9bdef6c0)" style="fill: none; stroke: #7ad151; stroke-width: 1.5; stroke-linecap: square"/>
   </g>
   <g id="line2d_29">
    <path d="M 940.719314 630.130237 
L 944.503034 630.16253 
L 948.302279 629.824309 
L 952.11119 629.116094 
L 955.923894 628.038979 
L 959.734511 626.594622 
L 963.537167 624.785252 
L 967.325998 622.613659 
L 971.095162 620.08319 
L 974.838846 617.197748 
L 978.55128 613.961782 
L 982.226737 610.380282 
L 985.859551 606.458769 
L 989.444121 602.203291 
L 992.974918 597.62041 
L 996.4465 592.71719 
L 999.853513 587.501194 
L 1003.190703 581.980464 
L 1006.452926 576.163512 
L 1009.63515 570.059308 
L 1012.732469 563.677264 
L 1015.740108 557.02722 
L 1018.653428 550.119431 
L 1021.467938 542.964548 
L 1024.179298 535.573602 
L 1026.783327 527.957991 
L 1029.27601 520.129457 
L 1031.653503 512.100071 
L 1033.91214 503.882214 
L 1036.04844 495.488558 
L 1038.059107 486.932043 
L 1039.941041 478.225865 
L 1041.691341 469.383448 
L 1043.307308 460.418425 
L 1044.78645 451.34462 
L 1046.126486 442.176025 
L 1047.32535 432.926777 
L 1048.381194 423.611136 
L 1049.29239 414.243468 
L 1050.057532 404.838217 
L 1050.67544 395.409885 
L 1051.145163 385.973009 
L 1051.465975 376.542141 
L 1051.637383 367.131822 
L 1051.659121 357.756563 
L 1051.531156 348.430819 
L 1051.253686 339.16897 
L 1050.827138 329.985297 
L 1050.25217 320.893961 
L 1049.529669 311.90898 
L 1048.660748 303.044207 
L 1047.646748 294.313313 
L 1046.489232 285.729758 
L 1045.189984 277.306779 
L 1043.751009 269.057364 
L 1042.174525 260.994231 
L 1040.462962 253.129814 
L 1038.618961 245.47624 
L 1036.645363 238.045309 
L 1034.545213 230.848479 
L 1032.321748 223.896848 
L 1029.978398 217.201134 
L 1027.518775 210.771661 
L 1024.946671 204.618345 
L 1022.266054 198.750671 
L 1019.481055 193.177689 
L 1016.59597 187.90799 
L 1013.615247 182.949701 
L 1010.543483 178.310467 
L 1007.385412 173.997441 
L 1004.145906 170.017274 
L 1000.829959 166.376103 
L 997.442684 163.079541 
L 993.989304 160.132673 
L 990.475144 157.540042 
L 986.905622 155.305646 
L 983.286243 153.43293 
L 979.622587 151.924781 
L 975.920303 150.783525 
L 972.1851 150.010922 
L 968.422738 149.608163 
" clip-path="url(#p6d9bdef6c0)" style="fill: none; stroke: #7ad151; stroke-width: 1.5; stroke-linecap: square"/>
   </g>
   <g id="line2d_30">
    <defs>
     <path id="mb4c0fd4b56" d="M 0 3 
C 0.795609 3 1.55874 2.683901 2.12132 2.12132 
C 2.683901 1.55874 3 0.795609 3 0 
C 3 -0.795609 2.683901 -1.55874 2.12132 -2.12132 
C 1.55874 -2.683901 0.795609 -3 0 -3 
C -0.795609 -3 -1.55874 -2.683901 -2.12132 -2.12132 
C -2.683901 -1.55874 -3 -0.795609 -3 0 
C -3 0.795609 -2.683901 1.55874 -2.12132 2.12132 
C -1.55874 2.683901 -0.795609 3 0 3 
z
" style="stroke: #7ad151"/>
    </defs>
    <g clip-path="url(#p6d9bdef6c0)">
     <use xlink:href="#mb4c0fd4b56" x="954.571026" y="389.8692" style="fill: #7ad151; stroke: #7ad151"/>
    </g>
   </g>
   <g id="line2d_31">
    <path d="M 993.177614 629.189915 
L 989.485157 628.61215 
L 985.837488 627.666261 
L 982.240231 626.353706 
L 978.698932 624.676509 
L 975.219053 622.637256 
L 971.805959 620.239092 
L 968.464912 617.485714 
L 965.201065 614.381368 
L 962.01945 610.930841 
L 958.924973 607.139452 
L 955.922405 603.013048 
L 953.016377 598.557993 
L 950.211368 593.781154 
L 947.511704 588.689897 
L 944.921548 583.292074 
L 942.444893 577.596006 
L 940.085559 571.610478 
L 937.847183 565.344717 
L 935.733217 558.808386 
L 933.74692 552.011563 
L 931.891356 544.964728 
L 930.169384 537.678747 
L 928.583661 530.164855 
L 927.136631 522.434637 
L 925.830526 514.500012 
L 924.667359 506.373216 
L 923.648924 498.066779 
L 922.776792 489.593509 
L 922.052307 480.966472 
L 921.476586 472.198969 
L 921.050518 463.30452 
L 920.774758 454.296839 
L 920.649732 445.189815 
L 920.675633 435.99749 
L 920.852422 426.734039 
L 921.179824 417.413746 
L 921.657337 408.05098 
L 922.284222 398.66018 
L 923.059514 389.255824 
L 923.982018 379.852414 
L 925.05031 370.46445 
L 926.262744 361.106406 
L 927.61745 351.792712 
L 929.112339 342.53773 
L 930.745107 333.355729 
L 932.513235 324.260868 
L 934.413997 315.26717 
L 936.444463 306.388503 
L 938.601501 297.638557 
L 940.881786 289.030824 
L 943.281802 280.578577 
L 945.797847 272.294848 
L 948.426043 264.19241 
L 951.162337 256.283756 
L 954.002509 248.581082 
L 956.942181 241.096264 
L 959.97682 233.840842 
L 963.101745 226.826005 
L 966.31214 220.062569 
L 969.603054 213.560963 
L 972.969412 207.331211 
L 976.406024 201.382919 
L 979.907591 195.72526 
L 983.468714 190.366956 
L 987.083901 185.31627 
L 990.747578 180.58099 
L 994.454096 176.168418 
L 998.197741 172.085356 
L 1001.972739 168.338102 
L 1005.77327 164.932432 
L 1009.593473 161.873599 
L 1013.427458 159.166318 
L 1017.269314 156.814764 
L 1021.113117 154.822564 
L 1024.952939 153.192788 
L 1028.78286 151.92795 
L 1032.596975 151.03 
L 1036.389402 150.500323 
L 1040.154294 150.339736 
L 1043.885845 150.548485 
" clip-path="url(#p6d9bdef6c0)" style="fill: none; stroke: #54c568; stroke-width: 1.5; stroke-linecap: square"/>
   </g>
   <g id="line2d_32">
    <path d="M 993.177614 629.189915 
L 996.955436 629.403566 
L 1000.766527 629.247873 
L 1004.605011 628.723075 
L 1008.464969 627.829982 
L 1012.340449 626.569971 
L 1016.225475 624.944984 
L 1020.114058 622.957528 
L 1024.0002 620.610666 
L 1027.877911 617.908018 
L 1031.741211 614.85375 
L 1035.584142 611.452572 
L 1039.40078 607.709729 
L 1043.185239 603.630992 
L 1046.931685 599.222649 
L 1050.634339 594.491498 
L 1054.287494 589.444835 
L 1057.885516 584.090441 
L 1061.422858 578.436571 
L 1064.894064 572.491945 
L 1068.293783 566.265727 
L 1071.616772 559.767519 
L 1074.857909 553.007339 
L 1078.012194 545.995613 
L 1081.074765 538.743151 
L 1084.040899 531.261136 
L 1086.906022 523.561105 
L 1089.665718 515.65493 
L 1092.315729 507.554804 
L 1094.851972 499.273214 
L 1097.270534 490.822932 
L 1099.567686 482.216986 
L 1101.739887 473.468647 
L 1103.783787 464.591403 
L 1105.696235 455.598943 
L 1107.474281 446.505132 
L 1109.115184 437.323994 
L 1110.616414 428.069683 
L 1111.975656 418.75647 
L 1113.190815 409.398714 
L 1114.260016 400.010846 
L 1115.18161 390.60734 
L 1115.954178 381.202696 
L 1116.576528 371.811415 
L 1117.047699 362.447978 
L 1117.366966 353.126822 
L 1117.533836 343.86232 
L 1117.548052 334.668758 
L 1117.409592 325.560311 
L 1117.11867 316.551023 
L 1116.675733 307.654787 
L 1116.081466 298.885319 
L 1115.336784 290.256142 
L 1114.442836 281.780561 
L 1113.401 273.471645 
L 1112.212882 265.342205 
L 1110.880315 257.404777 
L 1109.405353 249.6716 
L 1107.79027 242.154597 
L 1106.037557 234.86536 
L 1104.149917 227.815127 
L 1102.130259 221.014769 
L 1099.981699 214.474773 
L 1097.707548 208.205223 
L 1095.311314 202.215785 
L 1092.796692 196.515695 
L 1090.167559 191.113742 
L 1087.427968 186.018256 
L 1084.582144 181.237093 
L 1081.634475 176.777626 
L 1078.589507 172.64673 
L 1075.451934 168.850776 
L 1072.226593 165.395616 
L 1068.91846 162.286578 
L 1065.532633 159.528456 
L 1062.074335 157.125503 
L 1058.548897 155.081424 
L 1054.961755 153.39937 
L 1051.318441 152.081936 
L 1047.624573 151.131152 
L 1043.885845 150.548485 
" clip-path="url(#p6d9bdef6c0)" style="fill: none; stroke: #54c568; stroke-width: 1.5; stroke-linecap: square"/>
   </g>
   <g id="line2d_33">
    <defs>
     <path id="m9b0d258b4e" d="M 0 3 
C 0.795609 3 1.55874 2.683901 2.12132 2.12132 
C 2.683901 1.55874 3 0.795609 3 0 
C 3 -0.795609 2.683901 -1.55874 2.12132 -2.12132 
C 1.55874 -2.683901 0.795609 -3 0 -3 
C -0.795609 -3 -1.55874 -2.683901 -2.12132 -2.12132 
C -2.683901 -1.55874 -3 -0.795609 -3 0 
C -3 0.795609 -2.683901 1.55874 -2.12132 2.12132 
C -1.55874 2.683901 -0.795609 3 0 3 
z
" style="stroke: #54c568"/>
    </defs>
    <g clip-path="url(#p6d9bdef6c0)">
     <use xlink:href="#m9b0d258b4e" x="1018.53173" y="389.8692" style="fill: #54c568; stroke: #54c568"/>
    </g>
   </g>
   <g id="line2d_34">
    <path d="M 1028.229632 624.408643 
L 1024.633367 623.39133 
L 1021.125803 622.013942 
L 1017.71235 620.278605 
L 1014.39827 618.187992 
L 1011.188674 615.745329 
L 1008.08851 612.954381 
L 1005.10256 609.819452 
L 1002.235426 606.345376 
L 999.491531 602.537509 
L 996.875104 598.401723 
L 994.39018 593.944395 
L 992.040591 589.172397 
L 989.82996 584.093089 
L 987.761695 578.714301 
L 985.838985 573.044328 
L 984.064796 567.091913 
L 982.441862 560.866232 
L 980.972686 554.376887 
L 979.659533 547.633882 
L 978.504429 540.647616 
L 977.509155 533.428861 
L 976.675244 525.988747 
L 976.003983 518.338747 
L 975.496407 510.490655 
L 975.153299 502.456575 
L 974.975187 494.248892 
L 974.962347 485.880264 
L 975.114797 477.363594 
L 975.432304 468.712013 
L 975.914377 459.938863 
L 976.560273 451.057671 
L 977.368996 442.08213 
L 978.339299 433.02608 
L 979.469686 423.903486 
L 980.758414 414.728414 
L 982.203497 405.51501 
L 983.802704 396.277482 
L 985.553572 387.030072 
L 987.4534 377.787041 
L 989.499259 368.562639 
L 991.687993 359.37109 
L 994.016229 350.226567 
L 996.480376 341.14317 
L 999.076636 332.134906 
L 1001.801003 323.215663 
L 1004.649279 314.399195 
L 1007.61707 305.699097 
L 1010.699801 297.128782 
L 1013.892719 288.701467 
L 1017.190899 280.430145 
L 1020.589258 272.32757 
L 1024.082554 264.406236 
L 1027.665401 256.678357 
L 1031.332275 249.155848 
L 1035.077522 241.850309 
L 1038.895366 234.773004 
L 1042.779922 227.934847 
L 1046.725198 221.34638 
L 1050.725113 215.017764 
L 1054.773498 208.958756 
L 1058.864111 203.178698 
L 1062.990644 197.686504 
L 1067.146736 192.490642 
L 1071.325976 187.599123 
L 1075.521922 183.019489 
L 1079.728104 178.758803 
L 1083.938035 174.823634 
L 1088.145224 171.22005 
L 1092.343185 167.953607 
L 1096.525444 165.029341 
L 1100.685553 162.451763 
L 1104.817097 160.224845 
L 1108.913705 158.352023 
L 1112.96906 156.836183 
L 1116.976911 155.679663 
L 1120.931076 154.884247 
L 1124.825459 154.45116 
L 1128.654055 154.381071 
L 1132.410961 154.674087 
L 1136.090383 155.329757 
" clip-path="url(#p6d9bdef6c0)" style="fill: none; stroke: #35b779; stroke-width: 1.5; stroke-linecap: square"/>
   </g>
   <g id="line2d_35">
    <path d="M 1028.229632 624.408643 
L 1031.954401 625.07474 
L 1035.756583 625.378167 
L 1039.630315 625.318457 
L 1043.569625 624.895701 
L 1047.568439 624.110551 
L 1051.620591 622.964218 
L 1055.719832 621.458469 
L 1059.859842 619.595626 
L 1064.034237 617.378562 
L 1068.236581 614.810695 
L 1072.460394 611.895985 
L 1076.699163 608.638925 
L 1080.946352 605.044538 
L 1085.195412 601.118367 
L 1089.439792 596.866464 
L 1093.672948 592.295387 
L 1097.888351 587.412183 
L 1102.079502 582.224382 
L 1106.239938 576.739984 
L 1110.363246 570.967444 
L 1114.443065 564.915664 
L 1118.473107 558.593975 
L 1122.447157 552.012125 
L 1126.359086 545.180262 
L 1130.202864 538.10892 
L 1133.972563 530.809004 
L 1137.662372 523.291769 
L 1141.266599 515.568805 
L 1144.779688 507.652023 
L 1148.196223 499.553627 
L 1151.510934 491.286106 
L 1154.718711 482.862208 
L 1157.814608 474.294921 
L 1160.793851 465.597456 
L 1163.651847 456.783223 
L 1166.384187 447.865814 
L 1168.986661 438.858978 
L 1171.455254 429.776603 
L 1173.78616 420.632694 
L 1175.975785 411.44135 
L 1178.020753 402.216744 
L 1179.917911 392.973098 
L 1181.664333 383.724666 
L 1183.257326 374.485709 
L 1184.694435 365.270472 
L 1185.973444 356.093164 
L 1187.092379 346.967937 
L 1188.049516 337.90886 
L 1188.84338 328.929903 
L 1189.472745 320.044909 
L 1189.936642 311.267579 
L 1190.234355 302.611448 
L 1190.365426 294.089861 
L 1190.329651 285.71596 
L 1190.127087 277.502655 
L 1189.758045 269.462611 
L 1189.223095 261.608225 
L 1188.523061 253.951608 
L 1187.659024 246.504567 
L 1186.632314 239.278583 
L 1185.444516 232.2848 
L 1184.09746 225.533999 
L 1182.593225 219.036592 
L 1180.934128 212.802597 
L 1179.122729 206.841625 
L 1177.161821 201.162869 
L 1175.054427 195.775084 
L 1172.803796 190.686578 
L 1170.413399 185.905197 
L 1167.886921 181.438314 
L 1165.228259 177.292816 
L 1162.441512 173.475096 
L 1159.530977 169.991039 
L 1156.501141 166.846019 
L 1153.356676 164.044885 
L 1150.102432 161.591955 
L 1146.743425 159.491012 
L 1143.284835 157.745296 
L 1139.731995 156.357497 
L 1136.090383 155.329757 
" clip-path="url(#p6d9bdef6c0)" style="fill: none; stroke: #35b779; stroke-width: 1.5; stroke-linecap: square"/>
   </g>
   <g id="line2d_36">
    <defs>
     <path id="m6fb03cb4dc" d="M 0 3 
C 0.795609 3 1.55874 2.683901 2.12132 2.12132 
C 2.683901 1.55874 3 0.795609 3 0 
C 3 -0.795609 2.683901 -1.55874 2.12132 -2.12132 
C 1.55874 -2.683901 0.795609 -3 0 -3 
C -0.795609 -3 -1.55874 -2.683901 -2.12132 -2.12132 
C -2.683901 -1.55874 -3 -0.795609 -3 0 
C -3 0.795609 -2.683901 1.55874 -2.12132 2.12132 
C -1.55874 2.683901 -0.795609 3 0 3 
z
" style="stroke: #35b779"/>
    </defs>
    <g clip-path="url(#p6d9bdef6c0)">
     <use xlink:href="#m6fb03cb4dc" x="1082.160008" y="389.8692" style="fill: #35b779; stroke: #35b779"/>
    </g>
   </g>
   <g id="line2d_37">
    <path d="M 1043.493197 607.551658 
L 1040.195933 605.792083 
L 1037.061992 603.699569 
L 1034.096205 601.277345 
L 1031.303146 598.529145 
L 1028.687121 595.459206 
L 1026.252164 592.072263 
L 1024.002029 588.373536 
L 1021.940187 584.368731 
L 1020.069815 580.064022 
L 1018.393799 575.466045 
L 1016.914722 570.581892 
L 1015.634865 565.419093 
L 1014.556202 559.985609 
L 1013.680395 554.289818 
L 1013.008796 548.340502 
L 1012.542439 542.146835 
L 1012.282044 535.718366 
L 1012.228013 529.065009 
L 1012.380428 522.197022 
L 1012.739055 515.124995 
L 1013.30334 507.859833 
L 1014.072414 500.412738 
L 1015.045091 492.795192 
L 1016.21987 485.018942 
L 1017.594942 477.095978 
L 1019.168184 469.038517 
L 1020.937172 460.858983 
L 1022.899177 452.569987 
L 1025.051175 444.184311 
L 1027.389847 435.714886 
L 1029.911588 427.174769 
L 1032.612508 418.57713 
L 1035.488444 409.935226 
L 1038.53496 401.262381 
L 1041.74736 392.571969 
L 1045.120689 383.877389 
L 1048.649747 375.192048 
L 1052.329092 366.529338 
L 1056.153051 357.902617 
L 1060.115727 349.325186 
L 1064.21101 340.810271 
L 1068.432586 332.371001 
L 1072.773946 324.020389 
L 1077.228394 315.771311 
L 1081.789063 307.636487 
L 1086.448921 299.62846 
L 1091.200782 291.759577 
L 1096.03732 284.041972 
L 1100.951076 276.487545 
L 1105.934475 269.107945 
L 1110.979831 261.914549 
L 1116.079366 254.918451 
L 1121.225217 248.130437 
L 1126.409448 241.560973 
L 1131.624066 235.22019 
L 1136.861031 229.117865 
L 1142.112268 223.263406 
L 1147.369679 217.665842 
L 1152.625158 212.333803 
L 1157.870601 207.27551 
L 1163.097921 202.498764 
L 1168.299057 198.010929 
L 1173.46599 193.818926 
L 1178.590752 189.929218 
L 1183.665441 186.347803 
L 1188.682232 183.080204 
L 1193.633391 180.131458 
L 1198.511283 177.506112 
L 1203.308385 175.208215 
L 1208.017303 173.24131 
L 1212.630774 171.608429 
L 1217.141685 170.31209 
L 1221.543081 169.354293 
L 1225.828175 168.736513 
L 1229.990359 168.459704 
L 1234.023217 168.524293 
L 1237.920529 168.930179 
L 1241.676286 169.676737 
L 1245.284697 170.762816 
L 1248.740198 172.186742 
" clip-path="url(#p6d9bdef6c0)" style="fill: none; stroke: #22a884; stroke-width: 1.5; stroke-linecap: square"/>
   </g>
   <g id="line2d_38">
    <path d="M 1043.493197 607.551658 
L 1046.990785 608.995425 
L 1050.641218 610.101315 
L 1054.438868 610.867623 
L 1058.377878 611.293167 
L 1062.452175 611.377292 
L 1066.655476 611.119867 
L 1070.981301 610.52129 
L 1075.42298 609.582483 
L 1079.973663 608.304894 
L 1084.626333 606.690493 
L 1089.373818 604.74177 
L 1094.208796 602.461728 
L 1099.123812 599.853885 
L 1104.111288 596.92226 
L 1109.163533 593.671374 
L 1114.272757 590.10624 
L 1119.431082 586.232355 
L 1124.630554 582.055693 
L 1129.863157 577.582693 
L 1135.120821 572.820252 
L 1140.39544 567.775714 
L 1145.678881 562.456857 
L 1150.962997 556.871882 
L 1156.23964 551.029401 
L 1161.500675 544.938423 
L 1166.737988 538.60834 
L 1171.943505 532.048911 
L 1177.109199 525.270252 
L 1182.227105 518.282814 
L 1187.289331 511.097371 
L 1192.288072 503.725004 
L 1197.21562 496.177079 
L 1202.064377 488.465235 
L 1206.826867 480.601363 
L 1211.495746 472.597589 
L 1216.063815 464.466253 
L 1220.524031 456.219894 
L 1224.869517 447.871228 
L 1229.093571 439.433126 
L 1233.189681 430.9186 
L 1237.15153 422.34078 
L 1240.973011 413.71289 
L 1244.64823 405.048235 
L 1248.17152 396.360175 
L 1251.53745 387.662107 
L 1254.740828 378.967441 
L 1257.776715 370.289586 
L 1260.640431 361.641921 
L 1263.32756 353.03778 
L 1265.833958 344.49043 
L 1268.155761 336.013052 
L 1270.289388 327.618715 
L 1272.23155 319.320365 
L 1273.979252 311.130795 
L 1275.529799 303.062635 
L 1276.880801 295.128324 
L 1278.030174 287.340096 
L 1278.976146 279.709961 
L 1279.717258 272.249684 
L 1280.252368 264.970767 
L 1280.58065 257.884434 
L 1280.701599 251.001613 
L 1280.615027 244.332915 
L 1280.321069 237.888624 
L 1279.820178 231.678676 
L 1279.113125 225.712646 
L 1278.201001 219.999733 
L 1277.085213 214.548747 
L 1275.767482 209.368093 
L 1274.249838 204.465758 
L 1272.534622 199.849301 
L 1270.624478 195.525842 
L 1268.522353 191.502046 
L 1266.231487 187.784118 
L 1263.755413 184.37779 
L 1261.097948 181.288315 
L 1258.263191 178.520457 
L 1255.255512 176.078483 
L 1252.079549 173.966159 
L 1248.740198 172.186742 
" clip-path="url(#p6d9bdef6c0)" style="fill: none; stroke: #22a884; stroke-width: 1.5; stroke-linecap: square"/>
   </g>
   <g id="line2d_39">
    <defs>
     <path id="m6764e5037b" d="M 0 3 
C 0.795609 3 1.55874 2.683901 2.12132 2.12132 
C 2.683901 1.55874 3 0.795609 3 0 
C 3 -0.795609 2.683901 -1.55874 2.12132 -2.12132 
C 1.55874 -2.683901 0.795609 -3 0 -3 
C -0.795609 -3 -1.55874 -2.683901 -2.12132 -2.12132 
C -2.683901 -1.55874 -3 -0.795609 -3 0 
C -3 0.795609 -2.683901 1.55874 -2.12132 2.12132 
C -1.55874 2.683901 -0.795609 3 0 3 
z
" style="stroke: #22a884"/>
    </defs>
    <g clip-path="url(#p6d9bdef6c0)">
     <use xlink:href="#m6764e5037b" x="1146.116697" y="389.8692" style="fill: #22a884; stroke: #22a884"/>
    </g>
   </g>
   <g id="line2d_40">
    <path d="M 1067.095472 583.232187 
L 1064.206759 580.860817 
L 1061.543422 578.194953 
L 1059.109567 575.238704 
L 1056.908946 571.996628 
L 1054.944954 568.473725 
L 1053.220618 564.675427 
L 1051.738597 560.607591 
L 1050.501176 556.276488 
L 1049.510263 551.688797 
L 1048.767387 546.851592 
L 1048.273692 541.772332 
L 1048.029941 536.458848 
L 1048.036508 530.919334 
L 1048.293383 525.16233 
L 1048.800172 519.196714 
L 1049.556091 513.031685 
L 1050.559976 506.676747 
L 1051.810279 500.141702 
L 1053.305071 493.436623 
L 1055.042048 486.571852 
L 1057.018532 479.557972 
L 1059.231475 472.405798 
L 1061.677464 465.126359 
L 1064.352729 457.730879 
L 1067.253144 450.230761 
L 1070.374237 442.63757 
L 1073.711196 434.963014 
L 1077.258874 427.218926 
L 1081.011803 419.417248 
L 1084.964195 411.570009 
L 1089.109955 403.689309 
L 1093.442692 395.7873 
L 1097.955724 387.876165 
L 1102.642093 379.968103 
L 1107.494573 372.075308 
L 1112.505682 364.209949 
L 1117.667692 356.384156 
L 1122.972645 348.609994 
L 1128.412361 340.899451 
L 1133.978451 333.264415 
L 1139.662334 325.71666 
L 1145.455244 318.267824 
L 1151.348251 310.929392 
L 1157.332268 303.712679 
L 1163.398067 296.628813 
L 1169.536295 289.688717 
L 1175.737488 282.903092 
L 1181.992084 276.282402 
L 1188.290439 269.836854 
L 1194.622841 263.576387 
L 1200.979526 257.510654 
L 1207.350693 251.649009 
L 1213.726518 246.000489 
L 1220.097169 240.573804 
L 1226.452824 235.377322 
L 1232.783682 230.419055 
L 1239.079982 225.706649 
L 1245.332016 221.24737 
L 1251.530143 217.048093 
L 1257.664806 213.115294 
L 1263.726546 209.455036 
L 1269.706017 206.072965 
L 1275.593997 202.974293 
L 1281.381409 200.1638 
L 1287.059329 197.645819 
L 1292.619002 195.424233 
L 1298.051855 193.502466 
L 1303.349511 191.883483 
L 1308.503801 190.569779 
L 1313.506778 189.563381 
L 1318.350728 188.86584 
L 1323.028182 188.478231 
L 1327.531927 188.401153 
L 1331.855019 188.634724 
L 1335.990793 189.178583 
L 1339.93287 190.031893 
L 1343.675173 191.193338 
L 1347.211931 192.661127 
L 1350.53769 194.432996 
L 1353.647324 196.506213 
" clip-path="url(#p6d9bdef6c0)" style="fill: none; stroke: #1f988b; stroke-width: 1.5; stroke-linecap: square"/>
   </g>
   <g id="line2d_41">
    <path d="M 1067.095472 583.232187 
L 1070.24249 585.333105 
L 1073.605578 587.132633 
L 1077.179548 588.627995 
L 1080.95889 589.816884 
L 1084.937777 590.69747 
L 1089.110074 591.268392 
L 1093.469347 591.528772 
L 1098.008874 591.478207 
L 1102.721656 591.116775 
L 1107.600427 590.445035 
L 1112.637662 589.464021 
L 1117.825596 588.175246 
L 1123.156229 586.580698 
L 1128.621342 584.682835 
L 1134.212507 582.484583 
L 1139.921103 579.989333 
L 1145.738329 577.200931 
L 1151.655215 574.123677 
L 1157.662636 570.762316 
L 1163.751331 567.122031 
L 1169.91191 563.208435 
L 1176.134875 559.027562 
L 1182.41063 554.585859 
L 1188.729498 549.890176 
L 1195.081737 544.947751 
L 1201.457552 539.766207 
L 1207.84711 534.353532 
L 1214.240562 528.718073 
L 1220.628047 522.868519 
L 1226.999717 516.81389 
L 1233.345747 510.563521 
L 1239.656353 504.12705 
L 1245.921804 497.514402 
L 1252.132438 490.735773 
L 1258.27868 483.801615 
L 1264.351052 476.72262 
L 1270.340191 469.509703 
L 1276.236863 462.173987 
L 1282.031976 454.726781 
L 1287.716592 447.17957 
L 1293.281949 439.543991 
L 1298.719463 431.831817 
L 1304.02075 424.054939 
L 1309.177638 416.225349 
L 1314.182173 408.35512 
L 1319.026639 400.456388 
L 1323.703567 392.54133 
L 1328.205745 384.622152 
L 1332.526231 376.711065 
L 1336.658363 368.820267 
L 1340.59577 360.961925 
L 1344.33238 353.148155 
L 1347.862432 345.391007 
L 1351.180483 337.702441 
L 1354.281417 330.094312 
L 1357.160451 322.578352 
L 1359.813148 315.166149 
L 1362.235416 307.869133 
L 1364.423521 300.698556 
L 1366.374088 293.665473 
L 1368.084111 286.780729 
L 1369.550953 280.05494 
L 1370.77235 273.498476 
L 1371.746422 267.121448 
L 1372.471664 260.933688 
L 1372.94696 254.944738 
L 1373.171576 249.163831 
L 1373.145166 243.599881 
L 1372.867771 238.261468 
L 1372.339818 233.156824 
L 1371.562122 228.293818 
L 1370.535881 223.67995 
L 1369.262678 219.322334 
L 1367.744476 215.227688 
L 1365.983616 211.402328 
L 1363.982814 207.85215 
L 1361.745154 204.582629 
L 1359.274086 201.598807 
L 1356.573422 198.905284 
L 1353.647324 196.506213 
" clip-path="url(#p6d9bdef6c0)" style="fill: none; stroke: #1f988b; stroke-width: 1.5; stroke-linecap: square"/>
   </g>
   <g id="line2d_42">
    <defs>
     <path id="md91b942367" d="M 0 3 
C 0.795609 3 1.55874 2.683901 2.12132 2.12132 
C 2.683901 1.55874 3 0.795609 3 0 
C 3 -0.795609 2.683901 -1.55874 2.12132 -2.12132 
C 1.55874 -2.683901 0.795609 -3 0 -3 
C -0.795609 -3 -1.55874 -2.683901 -2.12132 -2.12132 
C -2.683901 -1.55874 -3 -0.795609 -3 0 
C -3 0.795609 -2.683901 1.55874 -2.12132 2.12132 
C -1.55874 2.683901 -0.795609 3 0 3 
z
" style="stroke: #1f988b"/>
    </defs>
    <g clip-path="url(#p6d9bdef6c0)">
     <use xlink:href="#md91b942367" x="1210.371398" y="389.8692" style="fill: #1f988b; stroke: #1f988b"/>
    </g>
   </g>
   <g id="line2d_43">
    <path d="M 1110.710622 565.45016 
L 1108.114148 562.761968 
L 1105.775458 559.807188 
L 1103.698157 556.590376 
L 1101.885449 553.116491 
L 1100.340128 549.390891 
L 1099.064578 545.419321 
L 1098.060764 541.207903 
L 1097.330235 536.763132 
L 1096.874118 532.091861 
L 1096.693115 527.201293 
L 1096.787506 522.098969 
L 1097.157146 516.792757 
L 1097.801463 511.290837 
L 1098.719465 505.601694 
L 1099.909737 499.7341 
L 1101.370442 493.697102 
L 1103.099329 487.500009 
L 1105.093731 481.152376 
L 1107.350575 474.663992 
L 1109.866379 468.04486 
L 1112.637264 461.305187 
L 1115.658959 454.455364 
L 1118.926803 447.505955 
L 1122.435758 440.467674 
L 1126.180413 433.351373 
L 1130.154995 426.168026 
L 1134.353375 418.928709 
L 1138.76908 411.644585 
L 1143.395299 404.326884 
L 1148.224902 396.986891 
L 1153.250439 389.635923 
L 1158.464163 382.285314 
L 1163.858035 374.946399 
L 1169.423736 367.630494 
L 1175.152686 360.34888 
L 1181.036051 353.112784 
L 1187.064758 345.933363 
L 1193.229513 338.821688 
L 1199.52081 331.788725 
L 1205.928947 324.845318 
L 1212.444044 318.002173 
L 1219.056056 311.269842 
L 1225.754786 304.658705 
L 1232.529907 298.178956 
L 1239.37097 291.840588 
L 1246.267428 285.653372 
L 1253.208648 279.626849 
L 1260.183925 273.770313 
L 1267.182505 268.092792 
L 1274.193597 262.603042 
L 1281.206389 257.309527 
L 1288.210069 252.220409 
L 1295.193838 247.343536 
L 1302.146926 242.686427 
L 1309.058614 238.256263 
L 1315.918243 234.059875 
L 1322.715236 230.103734 
L 1329.439113 226.39394 
L 1336.079507 222.936213 
L 1342.626177 219.735884 
L 1349.069031 216.797889 
L 1355.398133 214.126757 
L 1361.603724 211.726607 
L 1367.676236 209.60114 
L 1373.606305 207.753634 
L 1379.384788 206.186936 
L 1385.002775 204.903463 
L 1390.451602 203.905194 
L 1395.72287 203.193668 
L 1400.808448 202.769982 
L 1405.700497 202.63479 
L 1410.391472 202.788299 
L 1414.874141 203.230273 
L 1419.141591 203.960032 
L 1423.187243 204.976448 
L 1427.004859 206.277956 
L 1430.588551 207.862549 
L 1433.932795 209.727782 
L 1437.032433 211.870781 
L 1439.882686 214.28824 
" clip-path="url(#p6d9bdef6c0)" style="fill: none; stroke: #23888e; stroke-width: 1.5; stroke-linecap: square"/>
   </g>
   <g id="line2d_44">
    <path d="M 1110.710622 565.45016 
L 1113.594822 567.899441 
L 1116.728355 570.074211 
L 1120.106389 571.971119 
L 1123.723715 573.587239 
L 1127.574755 574.920078 
L 1131.653572 575.967583 
L 1135.953876 576.728137 
L 1140.469036 577.200569 
L 1145.192091 577.384149 
L 1150.115757 577.278595 
L 1155.232444 576.884069 
L 1160.534261 576.201179 
L 1166.013033 575.230979 
L 1171.660312 573.974965 
L 1177.467392 572.435073 
L 1183.425317 570.613678 
L 1189.524901 568.513588 
L 1195.756738 566.138041 
L 1202.111221 563.4907 
L 1208.57855 560.575647 
L 1215.148753 557.397378 
L 1221.811701 553.960792 
L 1228.557118 550.271189 
L 1235.374604 546.334258 
L 1242.253647 542.156069 
L 1249.18364 537.743064 
L 1256.153897 533.102049 
L 1263.153672 528.240179 
L 1270.172169 523.164951 
L 1277.198569 517.884191 
L 1284.222035 512.406041 
L 1291.23174 506.738948 
L 1298.216873 500.89165 
L 1305.166666 494.873164 
L 1312.070401 488.692769 
L 1318.917433 482.359996 
L 1325.697205 475.884608 
L 1332.399264 469.276591 
L 1339.013274 462.546133 
L 1345.529038 455.703613 
L 1351.936509 448.759581 
L 1358.225806 441.724744 
L 1364.387233 434.60995 
L 1370.411289 427.426168 
L 1376.288685 420.184477 
L 1382.010358 412.896042 
L 1387.567486 405.5721 
L 1392.951502 398.223947 
L 1398.154101 390.86291 
L 1403.167264 383.500342 
L 1407.983259 376.147594 
L 1412.594661 368.816003 
L 1416.99436 361.516875 
L 1421.175571 354.261465 
L 1425.131847 347.060959 
L 1428.857089 339.92646 
L 1432.345551 332.868969 
L 1435.591855 325.899368 
L 1438.590996 319.028404 
L 1441.338348 312.266672 
L 1443.829677 305.624597 
L 1446.061139 299.112421 
L 1448.029296 292.740186 
L 1449.731111 286.517716 
L 1451.16396 280.454607 
L 1452.325635 274.560207 
L 1453.214345 268.843606 
L 1453.828718 263.313617 
L 1454.167807 257.978767 
L 1454.23109 252.847283 
L 1454.018469 247.927077 
L 1453.530273 243.225736 
L 1452.767252 238.750508 
L 1451.730585 234.508294 
L 1450.42187 230.505635 
L 1448.843124 226.748704 
L 1446.996783 223.243292 
L 1444.885692 219.994806 
L 1442.513107 217.008253 
L 1439.882686 214.28824 
" clip-path="url(#p6d9bdef6c0)" style="fill: none; stroke: #23888e; stroke-width: 1.5; stroke-linecap: square"/>
   </g>
   <g id="line2d_45">
    <defs>
     <path id="m544811a3a0" d="M 0 3 
C 0.795609 3 1.55874 2.683901 2.12132 2.12132 
C 2.683901 1.55874 3 0.795609 3 0 
C 3 -0.795609 2.683901 -1.55874 2.12132 -2.12132 
C 1.55874 -2.683901 0.795609 -3 0 -3 
C -0.795609 -3 -1.55874 -2.683901 -2.12132 -2.12132 
C -2.683901 -1.55874 -3 -0.795609 -3 0 
C -3 0.795609 -2.683901 1.55874 -2.12132 2.12132 
C -1.55874 2.683901 -0.795609 3 0 3 
z
" style="stroke: #23888e"/>
    </defs>
    <g clip-path="url(#p6d9bdef6c0)">
     <use xlink:href="#m544811a3a0" x="1275.296654" y="389.8692" style="fill: #23888e; stroke: #23888e"/>
    </g>
   </g>
   <g id="line2d_46">
    <path d="M 1159.164204 549.174446 
L 1156.832357 546.253737 
L 1154.782248 543.091894 
L 1153.017038 539.693792 
L 1151.539448 536.064672 
L 1150.351757 532.210129 
L 1149.455796 528.136107 
L 1148.852946 523.848887 
L 1148.544138 519.355081 
L 1148.529848 514.661616 
L 1148.810096 509.775731 
L 1149.384452 504.704958 
L 1150.25203 499.457117 
L 1151.411491 494.040299 
L 1152.861049 488.462857 
L 1154.598467 482.733391 
L 1156.621068 476.860735 
L 1158.925732 470.853944 
L 1161.508906 464.722281 
L 1164.366606 458.4752 
L 1167.494426 452.122333 
L 1170.887544 445.673476 
L 1174.540728 439.138573 
L 1178.448344 432.527701 
L 1182.604367 425.851052 
L 1187.002389 419.118921 
L 1191.635628 412.34169 
L 1196.496941 405.529808 
L 1201.578832 398.693778 
L 1206.873464 391.844142 
L 1212.372674 384.99146 
L 1218.067983 378.146299 
L 1223.950608 371.319214 
L 1230.011479 364.520732 
L 1236.241251 357.761336 
L 1242.630317 351.051447 
L 1249.168827 344.401412 
L 1255.846698 337.821486 
L 1262.653634 331.321813 
L 1269.579139 324.912417 
L 1276.612533 318.603179 
L 1283.742973 312.403827 
L 1290.959464 306.323922 
L 1298.250878 300.372838 
L 1305.605972 294.559751 
L 1313.013405 288.893623 
L 1320.461757 283.383193 
L 1327.939541 278.036957 
L 1335.435227 272.863158 
L 1342.937259 267.869773 
L 1350.434068 263.064503 
L 1357.914094 258.454757 
L 1365.365805 254.047642 
L 1372.77771 249.849954 
L 1380.13838 245.868165 
L 1387.436466 242.108416 
L 1394.660714 238.576503 
L 1401.799986 235.277873 
L 1408.843274 232.217611 
L 1415.779716 229.400436 
L 1422.598618 226.830693 
L 1429.289465 224.512343 
L 1435.84194 222.448962 
L 1442.24594 220.64373 
L 1448.491591 219.099432 
L 1454.569262 217.818449 
L 1460.469582 216.802755 
L 1466.183452 216.053917 
L 1471.702063 215.57309 
L 1477.016906 215.361014 
L 1482.119785 215.418018 
L 1487.002831 215.744013 
L 1491.658516 216.338496 
L 1496.079661 217.200551 
L 1500.259449 218.328848 
L 1504.191435 219.721648 
L 1507.869555 221.376804 
L 1511.288139 223.291762 
L 1514.441916 225.463571 
L 1517.326022 227.888882 
L 1519.936011 230.563954 
" clip-path="url(#p6d9bdef6c0)" style="fill: none; stroke: #2a788e; stroke-width: 1.5; stroke-linecap: square"/>
   </g>
   <g id="line2d_47">
    <path d="M 1159.164204 549.174446 
L 1161.804993 551.884394 
L 1164.719851 554.344527 
L 1167.904286 556.551051 
L 1171.353386 558.500563 
L 1175.061833 560.190058 
L 1179.023909 561.616931 
L 1183.233505 562.778981 
L 1187.68413 563.674416 
L 1192.368921 564.301857 
L 1197.280654 564.660335 
L 1202.411757 564.749298 
L 1207.754318 564.568608 
L 1213.300097 564.118545 
L 1219.040546 563.399801 
L 1224.966811 562.413487 
L 1231.069755 561.161121 
L 1237.339969 559.644635 
L 1243.767783 557.866369 
L 1250.343286 555.829062 
L 1257.056339 553.535858 
L 1263.896593 550.990292 
L 1270.853498 548.196288 
L 1277.916329 545.158156 
L 1285.074194 541.880579 
L 1292.316057 538.368612 
L 1299.630752 534.627669 
L 1307.006999 530.663519 
L 1314.433426 526.482275 
L 1321.898581 522.090383 
L 1329.390953 517.494616 
L 1336.89899 512.70206 
L 1344.411114 507.720104 
L 1351.915744 502.556431 
L 1359.401306 497.219002 
L 1366.856259 491.716047 
L 1374.269108 486.056052 
L 1381.628423 480.247744 
L 1388.922857 474.300079 
L 1396.141161 468.222228 
L 1403.272206 462.023561 
L 1410.304995 455.713638 
L 1417.228686 449.302188 
L 1424.032603 442.799096 
L 1430.706253 436.214391 
L 1437.239347 429.558224 
L 1443.621812 422.84086 
L 1449.843805 416.072655 
L 1455.895734 409.264047 
L 1461.768266 402.425534 
L 1467.452346 395.567659 
L 1472.939211 388.700998 
L 1478.220399 381.836138 
L 1483.287768 374.983665 
L 1488.133503 368.154144 
L 1492.750134 361.358106 
L 1497.130541 354.60603 
L 1501.267971 347.908328 
L 1505.156044 341.275326 
L 1508.788764 334.717252 
L 1512.160531 328.244218 
L 1515.266144 321.866206 
L 1518.100817 315.59305 
L 1520.660177 309.434422 
L 1522.940278 303.399818 
L 1524.937605 297.498544 
L 1526.649079 291.739699 
L 1528.072059 286.132163 
L 1529.204351 280.684581 
L 1530.044211 275.405354 
L 1530.590343 270.302622 
L 1530.841904 265.384254 
L 1530.798507 260.657832 
L 1530.46022 256.130644 
L 1529.827562 251.809672 
L 1528.901511 247.701577 
L 1527.683493 243.812695 
L 1526.175388 240.149021 
L 1524.379519 236.716205 
L 1522.298657 233.519539 
L 1519.936011 230.563954 
" clip-path="url(#p6d9bdef6c0)" style="fill: none; stroke: #2a788e; stroke-width: 1.5; stroke-linecap: square"/>
   </g>
   <g id="line2d_48">
    <defs>
     <path id="ma70b4b4a1a" d="M 0 3 
C 0.795609 3 1.55874 2.683901 2.12132 2.12132 
C 2.683901 1.55874 3 0.795609 3 0 
C 3 -0.795609 2.683901 -1.55874 2.12132 -2.12132 
C 1.55874 -2.683901 0.795609 -3 0 -3 
C -0.795609 -3 -1.55874 -2.683901 -2.12132 -2.12132 
C -2.683901 -1.55874 -3 -0.795609 -3 0 
C -3 0.795609 -2.683901 1.55874 -2.12132 2.12132 
C -1.55874 2.683901 -0.795609 3 0 3 
z
" style="stroke: #2a788e"/>
    </defs>
    <g clip-path="url(#p6d9bdef6c0)">
     <use xlink:href="#ma70b4b4a1a" x="1339.550107" y="389.8692" style="fill: #2a788e; stroke: #2a788e"/>
    </g>
   </g>
   <g id="line2d_49">
    <path d="M 1190.357732 501.621581 
L 1188.78871 498.229499 
L 1187.550754 494.670332 
L 1186.645773 490.94957 
L 1186.075161 487.07295 
L 1185.8398 483.046448 
L 1185.940051 478.876274 
L 1186.37576 474.568857 
L 1187.146255 470.13084 
L 1188.250349 465.569065 
L 1189.686338 460.890566 
L 1191.452009 456.102558 
L 1193.544639 451.212422 
L 1195.961002 446.2277 
L 1198.697371 441.156077 
L 1201.749527 436.005373 
L 1205.112764 430.783531 
L 1208.781896 425.498601 
L 1212.751267 420.158734 
L 1217.014754 414.772163 
L 1221.565784 409.347192 
L 1226.39734 403.892189 
L 1231.501972 398.415563 
L 1236.87181 392.925758 
L 1242.498572 387.431241 
L 1248.373583 381.940484 
L 1254.487784 376.461951 
L 1260.831747 371.004092 
L 1267.395692 365.575321 
L 1274.169495 360.18401 
L 1281.142713 354.838471 
L 1288.304594 349.546947 
L 1295.644094 344.317597 
L 1303.149897 339.158484 
L 1310.810429 334.077563 
L 1318.613877 329.082669 
L 1326.548211 324.181504 
L 1334.601195 319.381624 
L 1342.760412 314.690431 
L 1351.013282 310.115158 
L 1359.347078 305.66286 
L 1367.748952 301.340402 
L 1376.205948 297.154449 
L 1384.705026 293.111456 
L 1393.233081 289.217656 
L 1401.776963 285.479053 
L 1410.323498 281.901413 
L 1418.859508 278.490251 
L 1427.371832 275.250827 
L 1435.847343 272.188136 
L 1444.272974 269.306901 
L 1452.635731 266.611565 
L 1460.922722 264.106283 
L 1469.121167 261.794918 
L 1477.218426 259.681034 
L 1485.202013 257.767891 
L 1493.059618 256.058439 
L 1500.779124 254.555313 
L 1508.34863 253.260831 
L 1515.756463 252.17699 
L 1522.991201 251.30546 
L 1530.041689 250.647585 
L 1536.897055 250.20438 
L 1543.546729 249.976528 
L 1549.980458 249.96438 
L 1556.18832 250.167955 
L 1562.160745 250.58694 
L 1567.888523 251.220687 
L 1573.362822 252.068221 
L 1578.575202 253.128234 
L 1583.517624 254.399091 
L 1588.182469 255.878834 
L 1592.562544 257.56518 
L 1596.651094 259.455529 
L 1600.441815 261.546967 
L 1603.928863 263.836268 
L 1607.106861 266.319903 
L 1609.970908 268.994041 
L 1612.516588 271.854561 
L 1614.739976 274.897051 
L 1616.637644 278.116819 
" clip-path="url(#p6d9bdef6c0)" style="fill: none; stroke: #31688e; stroke-width: 1.5; stroke-linecap: square"/>
   </g>
   <g id="line2d_50">
    <path d="M 1190.357732 501.621581 
L 1192.277006 504.882558 
L 1194.521967 507.966193 
L 1197.089154 510.867731 
L 1199.974608 513.582698 
L 1203.173879 516.106907 
L 1206.682036 518.436468 
L 1210.493668 520.567786 
L 1214.602898 522.497578 
L 1219.00339 524.222865 
L 1223.688359 525.740989 
L 1228.650581 527.049609 
L 1233.882404 528.146707 
L 1239.375762 529.03059 
L 1245.122184 529.699897 
L 1251.11281 530.153595 
L 1257.338402 530.390985 
L 1263.789361 530.4117 
L 1270.45574 530.215709 
L 1277.32726 529.803313 
L 1284.393326 529.17515 
L 1291.643042 528.332187 
L 1299.06523 527.275723 
L 1306.648445 526.007389 
L 1314.380995 524.52914 
L 1322.250956 522.843255 
L 1330.246194 520.952334 
L 1338.35438 518.859291 
L 1346.563013 516.567356 
L 1354.859435 514.080061 
L 1363.230853 511.401242 
L 1371.66436 508.535029 
L 1380.146951 505.485843 
L 1388.665548 502.258383 
L 1397.207015 498.857628 
L 1405.758181 495.288821 
L 1414.305862 491.557464 
L 1422.836878 487.669311 
L 1431.338074 483.630358 
L 1439.796342 479.446831 
L 1448.19864 475.125182 
L 1456.532013 470.672075 
L 1464.78361 466.094376 
L 1472.940709 461.399143 
L 1480.990732 456.593616 
L 1488.921267 451.685205 
L 1496.720084 446.681478 
L 1504.375159 441.59015 
L 1511.874689 436.419073 
L 1519.207109 431.176219 
L 1526.361113 425.869673 
L 1533.325671 420.507616 
L 1540.090043 415.098317 
L 1546.6438 409.650117 
L 1552.976837 404.171416 
L 1559.079387 398.670662 
L 1564.942041 393.156337 
L 1570.55576 387.636944 
L 1575.911887 382.120992 
L 1581.002165 376.616988 
L 1585.818743 371.133417 
L 1590.354195 365.678736 
L 1594.601528 360.261354 
L 1598.554193 354.889626 
L 1602.206095 349.571834 
L 1605.551603 344.316177 
L 1608.585559 339.13076 
L 1611.303284 334.023578 
L 1613.700587 329.002506 
L 1615.773773 324.075285 
L 1617.519645 319.249515 
L 1618.93551 314.532634 
L 1620.019186 309.931917 
L 1620.769002 305.454458 
L 1621.1838 301.10716 
L 1621.262943 296.896727 
L 1621.006307 292.82965 
L 1620.414289 288.912202 
L 1619.487801 285.150422 
L 1618.228272 281.55011 
L 1616.637644 278.116819 
" clip-path="url(#p6d9bdef6c0)" style="fill: none; stroke: #31688e; stroke-width: 1.5; stroke-linecap: square"/>
   </g>
   <g id="line2d_51">
    <defs>
     <path id="m8ed564faeb" d="M 0 3 
C 0.795609 3 1.55874 2.683901 2.12132 2.12132 
C 2.683901 1.55874 3 0.795609 3 0 
C 3 -0.795609 2.683901 -1.55874 2.12132 -2.12132 
C 1.55874 -2.683901 0.795609 -3 0 -3 
C -0.795609 -3 -1.55874 -2.683901 -2.12132 -2.12132 
C -2.683901 -1.55874 -3 -0.795609 -3 0 
C -3 0.795609 -2.683901 1.55874 -2.12132 2.12132 
C -1.55874 2.683901 -0.795609 3 0 3 
z
" style="stroke: #31688e"/>
    </defs>
    <g clip-path="url(#p6d9bdef6c0)">
     <use xlink:href="#m8ed564faeb" x="1403.497688" y="389.8692" style="fill: #31688e; stroke: #31688e"/>
    </g>
   </g>
   <g id="line2d_52">
    <path d="M 1288.941091 551.639109 
L 1286.569315 548.75073 
L 1284.475935 545.617368 
L 1282.664178 542.243854 
L 1281.136839 538.635389 
L 1279.896273 534.797537 
L 1278.944392 530.736216 
L 1278.282665 526.457689 
L 1277.912111 521.968552 
L 1277.833302 517.275727 
L 1278.046359 512.386451 
L 1278.550954 507.308262 
L 1279.346309 502.04899 
L 1280.431197 496.616746 
L 1281.803947 491.019904 
L 1283.46244 485.267095 
L 1285.404119 479.36719 
L 1287.625992 473.329285 
L 1290.124631 467.162691 
L 1292.896184 460.876916 
L 1295.936378 454.481652 
L 1299.240525 447.986761 
L 1302.80353 441.402256 
L 1306.619898 434.738291 
L 1310.683747 428.005142 
L 1314.988808 421.213189 
L 1319.528445 414.372906 
L 1324.295658 407.494841 
L 1329.283095 400.589597 
L 1334.483067 393.667824 
L 1339.887556 386.740194 
L 1345.488228 379.817388 
L 1351.276447 372.910081 
L 1357.243288 366.028925 
L 1363.379552 359.184528 
L 1369.675776 352.387444 
L 1376.122252 345.648155 
L 1382.709039 338.977052 
L 1389.425983 332.38442 
L 1396.262725 325.880426 
L 1403.208724 319.475098 
L 1410.253269 313.178312 
L 1417.385499 306.999779 
L 1424.594416 300.949024 
L 1431.868904 295.035377 
L 1439.197747 289.267957 
L 1446.569644 283.655657 
L 1453.973228 278.207131 
L 1461.397084 272.93078 
L 1468.829764 267.834739 
L 1476.259807 262.926866 
L 1483.675758 258.214729 
L 1491.066181 253.705594 
L 1498.419681 249.406414 
L 1505.724919 245.323816 
L 1512.970631 241.464098 
L 1520.145645 237.833209 
L 1527.238897 234.436748 
L 1534.239451 231.279954 
L 1541.13651 228.367692 
L 1547.919442 225.704454 
L 1554.577787 223.294346 
L 1561.101279 221.141084 
L 1567.479858 219.247989 
L 1573.70369 217.61798 
L 1579.763177 216.253569 
L 1585.648977 215.156861 
L 1591.352013 214.329547 
L 1596.863493 213.772903 
L 1602.174918 213.487786 
L 1607.278098 213.474636 
L 1612.165165 213.733474 
L 1616.828582 214.263901 
L 1621.26116 215.065098 
L 1625.456063 216.13583 
L 1629.406823 217.474447 
L 1633.107349 219.078884 
L 1636.551935 220.946667 
L 1639.735269 223.074917 
L 1642.652443 225.460351 
L 1645.298958 228.099291 
" clip-path="url(#p6d9bdef6c0)" style="fill: none; stroke: #39568c; stroke-width: 1.5; stroke-linecap: square"/>
   </g>
   <g id="line2d_53">
    <path d="M 1288.941091 551.639109 
L 1291.618883 554.312499 
L 1294.567286 556.732329 
L 1297.781752 558.894869 
L 1301.257325 560.796783 
L 1304.988647 562.435139 
L 1308.969963 563.807411 
L 1313.195136 564.911483 
L 1317.657649 565.745653 
L 1322.350623 566.308634 
L 1327.26682 566.599558 
L 1332.398662 566.617976 
L 1337.738233 566.363861 
L 1343.277302 565.837604 
L 1349.007328 565.040016 
L 1354.919474 563.972328 
L 1361.004626 562.636185 
L 1367.2534 561.033648 
L 1373.656161 559.167188 
L 1380.203037 557.039682 
L 1386.883932 554.654412 
L 1393.688546 552.015055 
L 1400.606385 549.125681 
L 1407.626784 545.990745 
L 1414.738917 542.615081 
L 1421.931818 539.003893 
L 1429.194396 535.162751 
L 1436.515453 531.097577 
L 1443.883699 526.814638 
L 1451.287774 522.32054 
L 1458.716262 517.622212 
L 1466.157707 512.726897 
L 1473.600636 507.642145 
L 1481.033573 502.375796 
L 1488.445056 496.935969 
L 1495.823657 491.331054 
L 1503.157999 485.569691 
L 1510.436774 479.660765 
L 1517.648757 473.613388 
L 1524.782828 467.436882 
L 1531.827988 461.140773 
L 1538.773373 454.734769 
L 1545.608273 448.228746 
L 1552.32215 441.632737 
L 1558.904652 434.956913 
L 1565.345628 428.211566 
L 1571.635148 421.407099 
L 1577.763513 414.554002 
L 1583.721273 407.662843 
L 1589.499243 400.744248 
L 1595.088513 393.808884 
L 1600.480465 386.867445 
L 1605.666785 379.930635 
L 1610.639476 373.00915 
L 1615.39087 366.113661 
L 1619.913641 359.254802 
L 1624.200816 352.443148 
L 1628.245783 345.689202 
L 1632.042307 339.003378 
L 1635.584531 332.395986 
L 1638.866996 325.877214 
L 1641.88464 319.457112 
L 1644.632809 313.145581 
L 1647.107266 306.952352 
L 1649.304196 300.886975 
L 1651.220212 294.958801 
L 1652.852358 289.176973 
L 1654.198118 283.550405 
L 1655.255417 278.087773 
L 1656.022626 272.7975 
L 1656.49856 267.687743 
L 1656.682486 262.766381 
L 1656.574121 258.041002 
L 1656.173631 253.518892 
L 1655.481634 249.207025 
L 1654.499197 245.112049 
L 1653.227835 241.240278 
L 1651.669509 237.597682 
L 1649.82662 234.189877 
L 1647.702011 231.022119 
L 1645.298958 228.099291 
" clip-path="url(#p6d9bdef6c0)" style="fill: none; stroke: #39568c; stroke-width: 1.5; stroke-linecap: square"/>
   </g>
   <g id="line2d_54">
    <defs>
     <path id="m520e1d281a" d="M 0 3 
C 0.795609 3 1.55874 2.683901 2.12132 2.12132 
C 2.683901 1.55874 3 0.795609 3 0 
C 3 -0.795609 2.683901 -1.55874 2.12132 -2.12132 
C 1.55874 -2.683901 0.795609 -3 0 -3 
C -0.795609 -3 -1.55874 -2.683901 -2.12132 -2.12132 
C -2.683901 -1.55874 -3 -0.795609 -3 0 
C -3 0.795609 -2.683901 1.55874 -2.12132 2.12132 
C -1.55874 2.683901 -0.795609 3 0 3 
z
" style="stroke: #39568c"/>
    </defs>
    <g clip-path="url(#p6d9bdef6c0)">
     <use xlink:href="#m520e1d281a" x="1467.120025" y="389.8692" style="fill: #39568c; stroke: #39568c"/>
    </g>
   </g>
   <g id="line2d_55">
    <path d="M 1427.371934 607.045053 
L 1424.083352 605.269305 
L 1420.959725 603.161427 
L 1418.005869 600.724667 
L 1415.22634 597.962783 
L 1412.625423 594.880034 
L 1410.207129 591.481174 
L 1407.975185 587.771442 
L 1405.933035 583.756559 
L 1404.083826 579.442716 
L 1402.430411 574.836564 
L 1400.975337 569.945207 
L 1399.72085 564.776185 
L 1398.668884 559.337469 
L 1397.821059 553.637445 
L 1397.178685 547.684903 
L 1396.742751 541.48902 
L 1396.513929 535.05935 
L 1396.492573 528.405808 
L 1396.678714 521.538652 
L 1397.072067 514.468472 
L 1397.672025 507.206168 
L 1398.477662 499.76294 
L 1399.487737 492.150263 
L 1400.700691 484.379876 
L 1402.114655 476.463761 
L 1403.727448 468.414123 
L 1405.536584 460.243374 
L 1407.539273 451.964114 
L 1409.732427 443.589108 
L 1412.112664 435.131269 
L 1414.676314 426.60364 
L 1417.419425 418.019369 
L 1420.337766 409.391692 
L 1423.426837 400.733913 
L 1426.681876 392.059382 
L 1430.097864 383.381473 
L 1433.669533 374.713568 
L 1437.391376 366.069032 
L 1441.257654 357.461194 
L 1445.262406 348.903327 
L 1449.399456 340.408626 
L 1453.662426 331.99019 
L 1458.044743 323.660999 
L 1462.539648 315.433896 
L 1467.140212 307.321568 
L 1471.839341 299.336521 
L 1476.629789 291.49107 
L 1481.504169 283.79731 
L 1486.454966 276.267106 
L 1491.474545 268.912068 
L 1496.555167 261.743537 
L 1501.688998 254.772566 
L 1506.868122 248.009905 
L 1512.084553 241.46598 
L 1517.330248 235.150882 
L 1522.597118 229.074349 
L 1527.877043 223.24575 
L 1533.16188 217.674072 
L 1538.443481 212.367907 
L 1543.713702 207.335435 
L 1548.964418 202.584418 
L 1554.18753 198.12218 
L 1559.374987 193.955602 
L 1564.51879 190.091108 
L 1569.611006 186.534658 
L 1574.643784 183.291735 
L 1579.609364 180.36734 
L 1584.50009 177.765981 
L 1589.30842 175.49167 
L 1594.02694 173.547914 
L 1598.648374 171.937709 
L 1603.165597 170.663539 
L 1607.571644 169.727368 
L 1611.85972 169.13064 
L 1616.023214 168.874275 
L 1620.055705 168.958668 
L 1623.950977 169.383689 
L 1627.703022 170.148682 
L 1631.306056 171.252469 
L 1634.754523 172.693347 
" clip-path="url(#p6d9bdef6c0)" style="fill: none; stroke: #414487; stroke-width: 1.5; stroke-linecap: square"/>
   </g>
   <g id="line2d_56">
    <path d="M 1427.371934 607.045053 
L 1430.86239 608.505979 
L 1434.507348 609.629782 
L 1438.301189 610.414731 
L 1442.238061 610.859615 
L 1446.311896 610.963747 
L 1450.516411 610.726968 
L 1454.845124 610.149641 
L 1459.291359 609.232659 
L 1463.848261 607.977434 
L 1468.508804 606.385902 
L 1473.265802 604.460516 
L 1478.111918 602.204247 
L 1483.039682 599.620572 
L 1488.041495 596.713476 
L 1493.109644 593.487441 
L 1498.236315 589.947441 
L 1503.413602 586.098935 
L 1508.633523 581.947858 
L 1513.888029 577.500608 
L 1519.169019 572.764045 
L 1524.468348 567.745471 
L 1529.777845 562.452625 
L 1535.089325 556.893668 
L 1540.394597 551.077171 
L 1545.685481 545.012103 
L 1550.953818 538.707816 
L 1556.191485 532.174031 
L 1561.390407 525.420822 
L 1566.542566 518.458602 
L 1571.640018 511.298107 
L 1576.674904 503.950377 
L 1581.639461 496.426742 
L 1586.526032 488.738803 
L 1591.327083 480.898414 
L 1596.035213 472.917665 
L 1600.64316 464.808861 
L 1605.143819 456.584506 
L 1609.530252 448.257281 
L 1613.795695 439.840025 
L 1617.93357 431.345718 
L 1621.937497 422.787457 
L 1625.801303 414.178438 
L 1629.519029 405.531937 
L 1633.084944 396.861285 
L 1636.493549 388.179851 
L 1639.739587 379.501022 
L 1642.818055 370.838181 
L 1645.724205 362.204683 
L 1648.453556 353.613843 
L 1651.001899 345.078905 
L 1653.365306 336.613031 
L 1655.540132 328.229274 
L 1657.523023 319.940561 
L 1659.310923 311.759674 
L 1660.901074 303.699225 
L 1662.291025 295.771644 
L 1663.478631 287.989155 
L 1664.462063 280.363758 
L 1665.239804 272.90721 
L 1665.810653 265.631009 
L 1666.173733 258.546374 
L 1666.328481 251.664229 
L 1666.27466 244.995187 
L 1666.012353 238.54953 
L 1665.541965 232.337196 
L 1664.86422 226.367766 
L 1663.980163 220.650443 
L 1662.891158 215.194043 
L 1661.598884 210.00698 
L 1660.105334 205.097251 
L 1658.41281 200.472427 
L 1656.523922 196.139639 
L 1654.441582 192.105568 
L 1652.169003 188.376434 
L 1649.709687 184.957987 
L 1647.067427 181.855499 
L 1644.246296 179.073753 
L 1641.250646 176.617038 
L 1638.085094 174.489142 
L 1634.754523 172.693347 
" clip-path="url(#p6d9bdef6c0)" style="fill: none; stroke: #414487; stroke-width: 1.5; stroke-linecap: square"/>
   </g>
   <g id="line2d_57">
    <defs>
     <path id="m903a602b70" d="M 0 3 
C 0.795609 3 1.55874 2.683901 2.12132 2.12132 
C 2.683901 1.55874 3 0.795609 3 0 
C 3 -0.795609 2.683901 -1.55874 2.12132 -2.12132 
C 1.55874 -2.683901 0.795609 -3 0 -3 
C -0.795609 -3 -1.55874 -2.683901 -2.12132 -2.12132 
C -2.683901 -1.55874 -3 -0.795609 -3 0 
C -3 0.795609 -2.683901 1.55874 -2.12132 2.12132 
C -1.55874 2.683901 -0.795609 3 0 3 
z
" style="stroke: #414487"/>
    </defs>
    <g clip-path="url(#p6d9bdef6c0)">
     <use xlink:href="#m903a602b70" x="1531.063229" y="389.8692" style="fill: #414487; stroke: #414487"/>
    </g>
   </g>
   <g id="line2d_58">
    <path d="M 1563.929436 628.342909 
L 1560.255522 627.657046 
L 1556.637178 626.604532 
L 1553.079984 625.186989 
L 1549.589424 623.406603 
L 1546.17088 621.26612 
L 1542.829624 618.768839 
L 1539.570808 615.918611 
L 1536.399456 612.719832 
L 1533.320459 609.177433 
L 1530.338563 605.296877 
L 1527.458368 601.084147 
L 1524.684314 596.545739 
L 1522.020678 591.68865 
L 1519.471568 586.520371 
L 1517.040913 581.048869 
L 1514.732463 575.282583 
L 1512.549776 569.230402 
L 1510.496218 562.90166 
L 1508.574956 556.306114 
L 1506.788951 549.453934 
L 1505.140958 542.355687 
L 1503.633518 535.022316 
L 1502.268955 527.465129 
L 1501.049374 519.69578 
L 1499.976654 511.726247 
L 1499.05245 503.56882 
L 1498.278187 495.236076 
L 1497.655058 486.740864 
L 1497.184025 478.096283 
L 1496.865814 469.315663 
L 1496.700916 460.412541 
L 1496.689584 451.400647 
L 1496.831837 442.293876 
L 1497.127454 433.106269 
L 1497.575981 423.851995 
L 1498.176725 414.545321 
L 1498.92876 405.200598 
L 1499.830927 395.832236 
L 1500.881834 386.454679 
L 1502.079861 377.082387 
L 1503.423161 367.729811 
L 1504.909663 358.411373 
L 1506.537074 349.14144 
L 1508.302886 339.934307 
L 1510.204374 330.80417 
L 1512.238609 321.765106 
L 1514.402451 312.831054 
L 1516.692567 304.01579 
L 1519.105423 295.332905 
L 1521.6373 286.795788 
L 1524.284293 278.417603 
L 1527.042322 270.211268 
L 1529.907134 262.189437 
L 1532.87431 254.364479 
L 1535.939277 246.74846 
L 1539.097307 239.353122 
L 1542.343532 232.189869 
L 1545.672947 225.269747 
L 1549.080417 218.603424 
L 1552.560688 212.201181 
L 1556.108394 206.07289 
L 1559.718065 200.227999 
L 1563.384135 194.675521 
L 1567.100951 189.424017 
L 1570.862782 184.481585 
L 1574.663827 179.855847 
L 1578.498226 175.553933 
L 1582.360067 171.582478 
L 1586.243394 167.947606 
L 1590.142219 164.65492 
L 1594.050532 161.709499 
L 1597.962306 159.115883 
L 1601.871508 156.878072 
L 1605.772112 154.999517 
L 1609.658103 153.483113 
L 1613.523488 152.3312 
L 1617.362309 151.545554 
L 1621.168645 151.127385 
L 1624.936628 151.077338 
L 1628.660447 151.395491 
" clip-path="url(#p6d9bdef6c0)" style="fill: none; stroke: #472f7d; stroke-width: 1.5; stroke-linecap: square"/>
   </g>
   <g id="line2d_59">
    <path d="M 1563.929436 628.342909 
L 1567.699363 628.667319 
L 1571.513381 628.623521 
L 1575.365611 628.211581 
L 1579.250112 627.432134 
L 1583.160896 626.286382 
L 1587.091931 624.776092 
L 1591.037156 622.903592 
L 1594.990488 620.671771 
L 1598.945832 618.084069 
L 1602.897089 615.144475 
L 1606.838165 611.857524 
L 1610.762985 608.228283 
L 1614.665495 604.262348 
L 1618.53968 599.965834 
L 1622.379565 595.345367 
L 1626.179229 590.40807 
L 1629.932814 585.161556 
L 1633.634532 579.613916 
L 1637.278675 573.773704 
L 1640.859624 567.649924 
L 1644.371857 561.252019 
L 1647.80996 554.589854 
L 1651.16863 547.673702 
L 1654.442688 540.514226 
L 1657.627087 533.122468 
L 1660.716916 525.509822 
L 1663.707412 517.688029 
L 1666.593962 509.669149 
L 1669.372116 501.465545 
L 1672.03759 493.089869 
L 1674.586275 484.555033 
L 1677.01424 475.874199 
L 1679.317742 467.060751 
L 1681.493229 458.128279 
L 1683.537346 449.090557 
L 1685.446942 439.96152 
L 1687.219072 430.755244 
L 1688.851003 421.485925 
L 1690.34022 412.167855 
L 1691.684425 402.815402 
L 1692.881547 393.442987 
L 1693.92974 384.065062 
L 1694.827386 374.696086 
L 1695.573103 365.350506 
L 1696.16574 356.042732 
L 1696.604383 346.787116 
L 1696.888357 337.597929 
L 1697.017223 328.489341 
L 1696.990782 319.475397 
L 1696.809076 310.569994 
L 1696.472384 301.786865 
L 1695.981226 293.139552 
L 1695.336359 284.64139 
L 1694.538777 276.305482 
L 1693.58971 268.14468 
L 1692.490622 260.171569 
L 1691.243207 252.398442 
L 1689.849388 244.837285 
L 1688.311316 237.499757 
L 1686.631361 230.397171 
L 1684.812113 223.54048 
L 1682.856379 216.940255 
L 1680.767173 210.606675 
L 1678.547717 204.549504 
L 1676.201434 198.778083 
L 1673.73194 193.30131 
L 1671.143044 188.127631 
L 1668.438738 183.265023 
L 1665.623191 178.720983 
L 1662.700745 174.502519 
L 1659.675906 170.616134 
L 1656.553338 167.067822 
L 1653.337856 163.863053 
L 1650.034418 161.00677 
L 1646.648118 158.503376 
L 1643.184177 156.356731 
L 1639.647936 154.570145 
L 1636.044848 153.146374 
L 1632.380468 152.087612 
L 1628.660447 151.395491 
" clip-path="url(#p6d9bdef6c0)" style="fill: none; stroke: #472f7d; stroke-width: 1.5; stroke-linecap: square"/>
   </g>
   <g id="line2d_60">
    <defs>
     <path id="m5f9ad67286" d="M 0 3 
C 0.795609 3 1.55874 2.683901 2.12132 2.12132 
C 2.683901 1.55874 3 0.795609 3 0 
C 3 -0.795609 2.683901 -1.55874 2.12132 -2.12132 
C 1.55874 -2.683901 0.795609 -3 0 -3 
C -0.795609 -3 -1.55874 -2.683901 -2.12132 -2.12132 
C -2.683901 -1.55874 -3 -0.795609 -3 0 
C -3 0.795609 -2.683901 1.55874 -2.12132 2.12132 
C -1.55874 2.683901 -0.795609 3 0 3 
z
" style="stroke: #472f7d"/>
    </defs>
    <g clip-path="url(#p6d9bdef6c0)">
     <use xlink:href="#m5f9ad67286" x="1596.294942" y="389.8692" style="fill: #472f7d; stroke: #472f7d"/>
    </g>
   </g>
   <g id="line2d_61">
    <path d="M 1652.964179 630.428971 
L 1649.238311 630.135788 
L 1645.528896 629.472132 
L 1641.841655 628.439025 
L 1638.182272 627.038061 
L 1634.55639 625.271399 
L 1630.9696 623.141764 
L 1627.427433 620.65244 
L 1623.935351 617.807265 
L 1620.498737 614.610626 
L 1617.122892 611.067452 
L 1613.813019 607.183207 
L 1610.574223 602.963879 
L 1607.411499 598.415974 
L 1604.329721 593.546505 
L 1601.333644 588.362981 
L 1598.427885 582.873394 
L 1595.616926 577.086208 
L 1592.905101 571.010347 
L 1590.296591 564.65518 
L 1587.795418 558.030505 
L 1585.40544 551.146538 
L 1583.130341 544.013893 
L 1580.973629 536.643568 
L 1578.93863 529.046927 
L 1577.028482 521.235684 
L 1575.246129 513.221884 
L 1573.594321 505.017883 
L 1572.075604 496.636331 
L 1570.69232 488.090152 
L 1569.446602 479.392523 
L 1568.34037 470.556856 
L 1567.375331 461.596774 
L 1566.552972 452.526094 
L 1565.874561 443.358801 
L 1565.341145 434.109031 
L 1564.953546 424.791047 
L 1564.712361 415.419215 
L 1564.617963 406.007988 
L 1564.670497 396.571875 
L 1564.869883 387.125427 
L 1565.215811 377.68321 
L 1565.70775 368.259783 
L 1566.344941 358.869676 
L 1567.1264 349.527369 
L 1568.050924 340.247265 
L 1569.117087 331.043675 
L 1570.323244 321.930789 
L 1571.667537 312.92266 
L 1573.147891 304.033176 
L 1574.762025 295.276046 
L 1576.50745 286.664771 
L 1578.381474 278.21263 
L 1580.381207 269.932655 
L 1582.503567 261.837614 
L 1584.745281 253.939988 
L 1587.102891 246.251955 
L 1589.572764 238.78537 
L 1592.15109 231.551745 
L 1594.833895 224.562234 
L 1597.61704 217.827614 
L 1600.496236 211.35827 
L 1603.467041 205.164177 
L 1606.524877 199.254886 
L 1609.665027 193.639508 
L 1612.882649 188.326702 
L 1616.172783 183.32466 
L 1619.530356 178.641095 
L 1622.950189 174.283228 
L 1626.427011 170.257779 
L 1629.955459 166.570955 
L 1633.530094 163.22844 
L 1637.145403 160.23539 
L 1640.795813 157.596418 
L 1644.475693 155.315594 
L 1648.179371 153.396434 
L 1651.901135 151.841898 
L 1655.635247 150.654383 
L 1659.375949 149.83572 
L 1663.117473 149.387172 
L 1666.85405 149.309429 
" clip-path="url(#p6d9bdef6c0)" style="fill: none; stroke: #481a6c; stroke-width: 1.5; stroke-linecap: square"/>
   </g>
   <g id="line2d_62">
    <path d="M 1652.964179 630.428971 
L 1656.747267 630.352571 
L 1660.535229 629.905363 
L 1664.322226 629.088037 
L 1668.102419 627.901852 
L 1671.869978 626.348638 
L 1675.619094 624.430791 
L 1679.343986 622.151266 
L 1683.038912 619.513579 
L 1686.698173 616.521797 
L 1690.316127 613.180534 
L 1693.887195 609.49494 
L 1697.405872 605.470699 
L 1700.866732 601.114017 
L 1704.264438 596.43161 
L 1707.593751 591.430699 
L 1710.849538 586.118995 
L 1714.026779 580.504688 
L 1717.120574 574.596435 
L 1720.126153 568.403346 
L 1723.038882 561.93497 
L 1725.854269 555.201281 
L 1728.567974 548.212662 
L 1731.175812 540.979889 
L 1733.673761 533.514114 
L 1736.057971 525.826849 
L 1738.324765 517.929948 
L 1740.470648 509.835585 
L 1742.49231 501.556244 
L 1744.386636 493.104689 
L 1746.150703 484.493952 
L 1747.781792 475.737311 
L 1749.277387 466.848268 
L 1750.635183 457.840528 
L 1751.853086 448.727982 
L 1752.929218 439.524679 
L 1753.86192 430.244812 
L 1754.649754 420.902688 
L 1755.291504 411.512713 
L 1755.786181 402.089365 
L 1756.133023 392.647174 
L 1756.331495 383.2007 
L 1756.381291 373.764509 
L 1756.282333 364.353149 
L 1756.034775 354.981134 
L 1755.638998 345.662913 
L 1755.095612 336.412855 
L 1754.405456 327.245223 
L 1753.569593 318.174153 
L 1752.589313 309.213631 
L 1751.466126 300.377475 
L 1750.201765 291.679308 
L 1748.79818 283.132542 
L 1747.257534 274.750357 
L 1745.582203 266.545677 
L 1743.77477 258.531153 
L 1741.838023 250.719143 
L 1739.774947 243.121691 
L 1737.588724 235.750514 
L 1735.282724 228.616977 
L 1732.860504 221.732079 
L 1730.325798 215.106436 
L 1727.682515 208.750265 
L 1724.93473 202.673366 
L 1722.08668 196.885109 
L 1719.142757 191.39442 
L 1716.1075 186.209765 
L 1712.985589 181.339137 
L 1709.781838 176.790048 
L 1706.501187 172.569512 
L 1703.148694 168.684036 
L 1699.729529 165.139611 
L 1696.248964 161.941703 
L 1692.712366 159.095243 
L 1689.125187 156.60462 
L 1685.492959 154.473673 
L 1681.821282 152.70569 
L 1678.115819 151.303395 
L 1674.382282 150.268952 
L 1670.626429 149.603955 
L 1666.85405 149.309429 
" clip-path="url(#p6d9bdef6c0)" style="fill: none; stroke: #481a6c; stroke-width: 1.5; stroke-linecap: square"/>
   </g>
   <g id="line2d_63">
    <defs>
     <path id="m1ae5089086" d="M 0 3 
C 0.795609 3 1.55874 2.683901 2.12132 2.12132 
C 2.683901 1.55874 3 0.795609 3 0 
C 3 -0.795609 2.683901 -1.55874 2.12132 -2.12132 
C 1.55874 -2.683901 0.795609 -3 0 -3 
C -0.795609 -3 -1.55874 -2.683901 -2.12132 -2.12132 
C -2.683901 -1.55874 -3 -0.795609 -3 0 
C -3 0.795609 -2.683901 1.55874 -2.12132 2.12132 
C -1.55874 2.683901 -0.795609 3 0 3 
z
" style="stroke: #481a6c"/>
    </defs>
    <g clip-path="url(#p6d9bdef6c0)">
     <use xlink:href="#m1ae5089086" x="1659.909115" y="389.8692" style="fill: #481a6c; stroke: #481a6c"/>
    </g>
   </g>
   <g id="line2d_64">
    <path d="M 1723.934661 630.529184 
L 1720.201952 630.342275 
L 1716.475134 629.784575 
L 1712.759955 628.856942 
L 1709.062142 627.560808 
L 1705.387398 625.89817 
L 1701.741388 623.871593 
L 1698.129734 621.484201 
L 1694.558006 618.739676 
L 1691.031711 615.642249 
L 1687.556286 612.196696 
L 1684.137089 608.40833 
L 1680.779394 604.282993 
L 1677.488376 599.827045 
L 1674.269112 595.047358 
L 1671.126564 589.9513 
L 1668.065579 584.546731 
L 1665.090875 578.841983 
L 1662.207041 572.845852 
L 1659.418522 566.567585 
L 1656.729618 560.016862 
L 1654.144476 553.203783 
L 1651.667081 546.138854 
L 1649.301254 538.832969 
L 1647.050642 531.297393 
L 1644.918715 523.543744 
L 1642.908761 515.583979 
L 1641.02388 507.430371 
L 1639.266977 499.095492 
L 1637.640761 490.592194 
L 1636.14774 481.933589 
L 1634.790217 473.133027 
L 1633.570283 464.204078 
L 1632.489821 455.16051 
L 1631.550497 446.016268 
L 1630.753758 436.78545 
L 1630.100833 427.482292 
L 1629.59273 418.121137 
L 1629.23023 408.716419 
L 1629.013894 399.282641 
L 1628.944056 389.834347 
L 1629.020821 380.386107 
L 1629.244073 370.95249 
L 1629.613467 361.54804 
L 1630.128434 352.18726 
L 1630.788179 342.884583 
L 1631.591685 333.654353 
L 1632.537714 324.510801 
L 1633.624805 315.468028 
L 1634.851285 306.539976 
L 1636.21526 297.740411 
L 1637.714628 289.082903 
L 1639.347077 280.580799 
L 1641.110091 272.247211 
L 1643.000949 264.094987 
L 1645.016738 256.136698 
L 1647.154349 248.384614 
L 1649.410485 240.85069 
L 1651.781668 233.546541 
L 1654.264242 226.48343 
L 1656.854378 219.672249 
L 1659.548084 213.123499 
L 1662.341205 206.847277 
L 1665.229434 200.853263 
L 1668.208319 195.150697 
L 1671.273266 189.748373 
L 1674.419549 184.654621 
L 1677.642317 179.877295 
L 1680.9366 175.423761 
L 1684.297319 171.300887 
L 1687.719292 167.515029 
L 1691.197243 164.072025 
L 1694.725808 160.977184 
L 1698.299547 158.235278 
L 1701.91295 155.850534 
L 1705.560445 153.826631 
L 1709.236407 152.166688 
L 1712.935169 150.873265 
L 1716.651027 149.948356 
L 1720.378253 149.393388 
L 1724.111098 149.209216 
" clip-path="url(#p6d9bdef6c0)" style="fill: none; stroke: #440154; stroke-width: 1.5; stroke-linecap: square"/>
   </g>
   <g id="line2d_65">
    <path d="M 1723.934661 630.529184 
L 1727.714036 630.345029 
L 1731.487719 629.790078 
L 1735.249892 628.865186 
L 1738.994754 627.57178 
L 1742.71653 625.911854 
L 1746.409482 623.887967 
L 1750.067915 621.50324 
L 1753.686189 618.76135 
L 1757.258724 615.666525 
L 1760.780012 612.223537 
L 1764.244623 608.437695 
L 1767.647215 604.314836 
L 1770.982541 599.861317 
L 1774.245459 595.084006 
L 1777.430938 589.990268 
L 1780.534065 584.587958 
L 1783.550056 578.885406 
L 1786.47426 572.891405 
L 1789.302169 566.615196 
L 1792.029422 560.066458 
L 1794.651814 553.255289 
L 1797.165301 546.19219 
L 1799.566008 538.888052 
L 1801.850233 531.354137 
L 1804.014453 523.602064 
L 1806.055333 515.643784 
L 1807.969724 507.491568 
L 1809.754675 499.157988 
L 1811.407435 490.655892 
L 1812.925453 481.99839 
L 1814.30639 473.198832 
L 1815.548117 464.270785 
L 1816.648718 455.228017 
L 1817.606497 446.08447 
L 1818.419977 436.854243 
L 1819.087903 427.551569 
L 1819.609246 418.190791 
L 1819.983202 408.786343 
L 1820.209194 399.352727 
L 1820.286873 389.904487 
L 1820.21612 380.456194 
L 1819.997045 371.022414 
L 1819.629984 361.617695 
L 1819.115504 352.256537 
L 1818.454398 342.953376 
L 1817.647685 333.722555 
L 1816.69661 324.578308 
L 1815.602639 315.534735 
L 1814.367458 306.605781 
L 1812.992973 297.805213 
L 1811.481302 289.1466 
L 1809.834776 280.643295 
L 1808.055935 272.308408 
L 1806.147521 264.154791 
L 1804.112476 256.195017 
L 1801.95394 248.441359 
L 1799.675239 240.905772 
L 1797.279888 233.599876 
L 1794.77158 226.534936 
L 1792.154182 219.721845 
L 1789.431731 213.17111 
L 1786.608424 206.89283 
L 1783.688615 200.896686 
L 1780.676806 195.191925 
L 1777.57764 189.787341 
L 1774.395897 184.691269 
L 1771.136482 179.911567 
L 1767.804421 175.455604 
L 1764.404853 171.330252 
L 1760.943018 167.541871 
L 1757.424255 164.096302 
L 1753.85399 160.998859 
L 1750.237728 158.254317 
L 1746.581044 155.866908 
L 1742.889576 153.840315 
L 1739.169018 152.17766 
L 1735.425106 150.881509 
L 1731.663612 149.953859 
L 1727.890337 149.396142 
L 1724.111098 149.209216 
" clip-path="url(#p6d9bdef6c0)" style="fill: none; stroke: #440154; stroke-width: 1.5; stroke-linecap: square"/>
   </g>
   <g id="line2d_66">
    <defs>
     <path id="m454cd04100" d="M 0 3 
C 0.795609 3 1.55874 2.683901 2.12132 2.12132 
C 2.683901 1.55874 3 0.795609 3 0 
C 3 -0.795609 2.683901 -1.55874 2.12132 -2.12132 
C 1.55874 -2.683901 0.795609 -3 0 -3 
C -0.795609 -3 -1.55874 -2.683901 -2.12132 -2.12132 
C -2.683901 -1.55874 -3 -0.795609 -3 0 
C -3 0.795609 -2.683901 1.55874 -2.12132 2.12132 
C -1.55874 2.683901 -0.795609 3 0 3 
z
" style="stroke: #440154"/>
    </defs>
    <g clip-path="url(#p6d9bdef6c0)">
     <use xlink:href="#m454cd04100" x="1724.02288" y="389.8692" style="fill: #440154; stroke: #440154"/>
    </g>
   </g>
   <g id="patch_3">
    <path d="M 665.208 856.7496 
L 665.208 115.5168 
" style="fill: none; stroke: #000000; stroke-width: 0.8; stroke-linejoin: miter; stroke-linecap: square"/>
   </g>
   <g id="patch_4">
    <path d="M 1820.376 856.7496 
L 1820.376 115.5168 
" style="fill: none; stroke: #000000; stroke-width: 0.8; stroke-linejoin: miter; stroke-linecap: square"/>
   </g>
   <g id="patch_5">
    <path d="M 665.208 856.7496 
L 1820.376 856.7496 
" style="fill: none; stroke: #000000; stroke-width: 0.8; stroke-linejoin: miter; stroke-linecap: square"/>
   </g>
   <g id="patch_6">
    <path d="M 665.208 115.5168 
L 1820.376 115.5168 
" style="fill: none; stroke: #000000; stroke-width: 0.8; stroke-linejoin: miter; stroke-linecap: square"/>
   </g>
  </g>
 </g>
 <defs>
  <clipPath id="p6d9bdef6c0">
   <rect x="665.208" y="115.5168" width="1155.168" height="741.2328"/>
  </clipPath>
 </defs>
</svg>
